<?xml version="1.0" encoding="UTF-8" standalone="no"?>
<svg
   xmlns:dc="http://purl.org/dc/elements/1.1/"
   xmlns:cc="http://creativecommons.org/ns#"
   xmlns:rdf="http://www.w3.org/1999/02/22-rdf-syntax-ns#"
   xmlns:svg="http://www.w3.org/2000/svg"
   xmlns="http://www.w3.org/2000/svg"
   viewBox="0 0 960 540"
   height="540"
   width="960"
   xml:space="preserve"
   id="svg2"
   version="1.1"><metadata
     id="metadata8"><rdf:RDF><cc:Work
         rdf:about=""><dc:format>image/svg+xml</dc:format><dc:type
           rdf:resource="http://purl.org/dc/dcmitype/StillImage" /></cc:Work></rdf:RDF></metadata><defs
     id="defs6"><clipPath
       id="clipPath18"
       clipPathUnits="userSpaceOnUse"><path
         style="clip-rule:evenodd"
         id="path16"
         d="M 0,9.1553e-5 H 720 V 405.00009 H 0 Z" /></clipPath><clipPath
       id="clipPath28"
       clipPathUnits="userSpaceOnUse"><path
         style="clip-rule:evenodd"
         id="path26"
         d="M 0,9.1553e-5 H 720 V 405.00009 H 0 Z" /></clipPath><clipPath
       id="clipPath38"
       clipPathUnits="userSpaceOnUse"><path
         style="clip-rule:evenodd"
         id="path36"
         d="M 1.0729e-5,0 H 720.00001 V 405 H 1.0729e-5 Z" /></clipPath><clipPath
       id="clipPath50"
       clipPathUnits="userSpaceOnUse"><path
         style="clip-rule:evenodd"
         id="path48"
         d="M 1.0729e-5,0 H 720.00001 V 405 H 1.0729e-5 Z" /></clipPath></defs><g
     transform="matrix(1.3333333,0,0,-1.3333333,0,540)"
     id="g10"><g
       id="g12"><g
         clip-path="url(#clipPath18)"
         id="g14"><path
           id="path20"
           style="fill:#ffffff;fill-opacity:1;fill-rule:evenodd;stroke:none"
           d="M 0,3.0518e-5 H 720 V 405.00003 H 0 Z" /></g></g><g
       id="g22"><g
         clip-path="url(#clipPath28)"
         id="g24"><path
           id="path30"
           style="fill:#f2f6f8;fill-opacity:1;fill-rule:evenodd;stroke:none"
           d="M 722.08,-6.0727 C 756.48,37.984 740.22,82.231 741.73,124.02 743.06,166 785.4,277.56 764.04,250.33 751.56,234.26 658.37,194.36 634.37,161.84 596.94,110.97 616.6,89.227 571.8,61.998 527.19,34.58 454.04,88.282 405.64,69.751 373.32,57.461 377.29,20.4 417.93,-41.812 c 8.13,-31.388 129.11,54.837 165.97,28.365 42.53,-30.633 106.61,-33.09 138.18,7.3743 z" /></g></g><g
       id="g32"><g
         clip-path="url(#clipPath38)"
         id="g34"><text
           id="text42"
           style="font-variant:normal;font-weight:bold;font-size:36px;font-family:'6';-inkscape-font-specification:'6 Bold';writing-mode:lr-tb;fill:#005e7d;fill-opacity:1;fill-rule:nonzero;stroke:none"
           transform="matrix(1,0,0,-1,460.42,282.41)"><tspan
             id="tspan40"
             y="0"
             x="0 29.087999 53.243999 80.82 102.564 124.668 153.756">HEALTH </tspan></text>
</g></g><g
       id="g44"><g
         clip-path="url(#clipPath50)"
         id="g46"><text
           id="text54"
           style="font-variant:normal;font-weight:bold;font-size:36px;font-family:'6';-inkscape-font-specification:'6 Bold';writing-mode:lr-tb;fill:#005e7d;fill-opacity:1;fill-rule:nonzero;stroke:none"
           transform="matrix(1,0,0,-1,368.47,239.18)"><tspan
             id="tspan52"
             y="0"
             x="0 22.968 51.335999 77.688004 101.844 128.304 155.16 166.968 189.936 220.32001 246.78 257.25601 284.832 311.25601">SUPERVISOR APP</tspan></text>
</g></g><path
       id="path56"
       style="fill:#f2f6f8;fill-opacity:1;fill-rule:evenodd;stroke:none"
       d="m 196.31,215.76 -7.31,-0.19 -7.26,-0.39 -7.07,-0.53 -7.08,-0.77 -6.83,-0.86 -6.73,-1.11 -6.64,-1.2 -6.4,-1.44 -6.3,-1.54 -6.11,-1.69 -5.92,-1.82 -5.72,-2.02 -5.53,-2.07 -5.34,-2.26 -5.05,-2.36 -4.91,-2.5 -4.618,-2.64 -4.377,-2.7 -4.137,-2.79 -3.897,-2.98 -3.56,-3.03 -3.319,-3.08 -3.03,-3.22 -2.742,-3.32 -2.406,-3.36 -2.116,-3.47 -1.732,-3.51 -1.443,-3.6 -1.106,-3.61 -0.722,-3.75 -0.337,-3.75 -0.048,-1.88 0.048,-1.88 0.337,-3.75 0.722,-3.75 1.106,-3.61 1.443,-3.6 1.732,-3.51 2.116,-3.47 2.406,-3.36 2.742,-3.32 3.03,-3.22 3.319,-3.08 3.56,-3.03 3.897,-2.983 4.137,-2.789 4.377,-2.694 4.618,-2.645 4.91,-2.501 5.05,-2.357 5.34,-2.26 5.53,-2.068 5.72,-2.02 5.92,-1.828 6.11,-1.683 6.3,-1.539 6.4,-1.395 6.64,-1.25 6.73,-1.107 6.83,-0.865 7.08,-0.721 7.07,-0.577 7.26,-0.385 7.31,-0.192 h 7.46 l 7.31,0.192 7.26,0.385 7.08,0.577 7.02,0.721 6.88,0.865 6.78,1.107 6.59,1.25 6.4,1.395 6.3,1.539 6.11,1.683 5.92,1.828 5.72,2.02 5.53,2.068 5.29,2.26 5.1,2.357 4.91,2.501 4.62,2.645 4.38,2.694 4.13,2.789 3.85,2.983 3.61,3.03 3.32,3.08 3.03,3.22 2.69,3.32 2.41,3.36 2.11,3.47 1.78,3.51 1.45,3.6 1.06,3.61 0.76,3.75 0.34,3.75 0.05,1.88 -0.05,1.88 -0.34,3.75 -0.76,3.75 -1.06,3.61 -1.45,3.6 -1.78,3.51 -2.11,3.47 -2.41,3.36 -2.69,3.32 -3.03,3.22 -3.32,3.08 -3.61,3.03 -3.85,2.98 -4.13,2.79 -4.38,2.7 -4.62,2.64 -4.91,2.5 -5.1,2.36 -5.29,2.26 -5.53,2.07 -5.72,2.02 -5.92,1.82 -6.11,1.69 -6.3,1.54 -6.4,1.44 -6.59,1.2 -6.78,1.11 -6.88,0.86 -7.02,0.77 -7.08,0.53 -7.26,0.39 -7.31,0.19 z" /><path
       id="path58"
       style="fill:#e4ecf1;fill-opacity:1;fill-rule:evenodd;stroke:none"
       d="m 279.86,143.28 -3.99,-0.29 -3.81,-0.43 -3.65,-0.73 -3.52,-0.91 -3.36,-1.11 -3.08,-1.3 -2.89,-1.49 -2.69,-1.64 -2.36,-1.78 -2.12,-1.93 -1.83,-2.07 -1.49,-2.17 -1.11,-2.26 -0.77,-2.41 -0.43,-2.41 v -1.25 -1.25 l 0.43,-2.46 0.77,-2.31 1.11,-2.31 1.49,-2.17 1.83,-2.02 2.12,-1.93 2.36,-1.83 2.69,-1.59 2.89,-1.493 3.08,-1.3 3.36,-1.108 3.52,-0.963 3.65,-0.675 3.81,-0.53 3.99,-0.24 h 4.04 l 3.9,0.24 3.85,0.53 3.66,0.675 3.51,0.963 3.32,1.108 3.13,1.3 2.88,1.493 2.65,1.59 2.4,1.83 2.12,1.93 1.78,2.02 1.49,2.17 1.16,2.31 0.77,2.31 0.43,2.46 0.05,1.25 -0.05,1.25 -0.43,2.41 -0.77,2.41 -1.16,2.26 -1.49,2.17 -1.78,2.07 -2.12,1.93 -2.4,1.78 -2.65,1.64 -2.88,1.49 -3.13,1.3 -3.32,1.11 -3.51,0.91 -3.66,0.73 -3.85,0.43 -3.9,0.29 z" /><path
       id="path60"
       style="fill:#e4ecf1;fill-opacity:1;fill-rule:evenodd;stroke:none"
       d="m 161.95,177.12 -0.68,-0.29 -83.052,-47.86 -0.289,-0.14 -0.289,-0.58 0.096,-0.29 0.049,-0.19 0.288,-0.29 0.145,-0.1 25.052,-14.41 0.63,-0.29 h 1.44 l 0.63,0.29 7.4,4.28 68.2,39.26 7.45,4.37 0.29,0.09 0.29,0.58 -0.05,0.34 -0.05,0.19 -0.29,0.29 -0.19,0.05 -25.05,14.41 -0.68,0.29 z" /><path
       id="path62"
       style="fill:#005e7d;fill-opacity:1;fill-rule:evenodd;stroke:none"
       d="m 323.65,190.32 -2.06,-0.29 -2.02,-0.67 -2.02,-1.06 -1.88,-1.39 -1.87,-1.74 -1.83,-1.92 -1.73,-2.21 -1.63,-2.36 -1.44,-2.6 -2.07,-4.03 -2.16,-5.63 -0.82,-2.79 -0.72,-2.79 -1.16,-5.72 -0.86,-5.77 -0.63,-5.44 -0.86,-11.44 -0.05,-2.41 3.85,-2.02 0.86,2.16 5.19,12.65 4.38,10.1 2.26,4.76 0.57,1.16 1.4,2.31 2.5,3.46 5.67,6.78 4.23,5.24 1.34,1.97 1.11,1.93 0.72,1.78 0.24,1.68 -0.19,1.59 -0.77,1.44 -1.4,1.3 -0.96,0.62 -1.05,0.53 -2.02,0.68 z" /><path
       id="path64"
       style="fill:#005e7d;fill-opacity:1;fill-rule:evenodd;stroke:none"
       d="m 323.65,190.32 -2.06,-0.29 -2.02,-0.67 -2.02,-1.06 -1.88,-1.39 -1.87,-1.74 -1.83,-1.92 -1.73,-2.21 -1.63,-2.36 -1.44,-2.6 -2.07,-4.03 -2.16,-5.63 -0.82,-2.79 -0.72,-2.79 -1.16,-5.72 -0.86,-5.77 -0.63,-5.44 -0.86,-11.44 -0.05,-2.41 3.85,-2.02 0.86,2.16 5.19,12.65 4.38,10.1 2.26,4.76 0.57,1.16 1.4,2.31 2.5,3.46 5.67,6.78 4.23,5.24 1.34,1.97 1.11,1.93 0.72,1.78 0.24,1.68 -0.19,1.59 -0.77,1.44 -1.4,1.3 -0.96,0.62 -1.05,0.53 -2.02,0.68 z" /><path
       id="path66"
       style="fill:#ffffff;fill-opacity:1;fill-rule:evenodd;stroke:none"
       d="m 325.1,186.6 -1.01,-0.67 -2.07,-1.49 -2.06,-1.73 -2.07,-2.01 -2.07,-2.26 -1.97,-2.54 -1.92,-2.84 -1.83,-3.02 -1.78,-3.36 -1.64,-3.65 -1.44,-3.89 -1.3,-4.12 -1.1,-4.42 -0.92,-4.7 -0.67,-4.95 -0.43,-5.23 -0.1,-2.69 v -0.19 l 0.19,-0.24 h 0.34 l 0.19,0.24 0.05,0.14 0.1,2.69 0.43,5.19 0.67,4.89 0.87,4.61 1.1,4.42 1.3,4.08 1.45,3.84 1.58,3.55 1.69,3.31 1.87,3.07 1.88,2.74 1.97,2.54 2.02,2.21 2.02,2.02 2.07,1.72 2.02,1.44 0.96,0.58 0.14,0.14 0.05,0.29 -0.05,0.15 -0.09,0.09 -0.29,0.05 z" /><path
       id="path68"
       style="fill:#337e92;fill-opacity:1;fill-rule:evenodd;stroke:none"
       d="m 328.96,167.04 -1.44,-0.19 -2.35,-0.63 -3.32,-1.63 -3.5,-2.25 -3.46,-2.93 -3.27,-3.36 -2.88,-3.75 -1.25,-2.01 -1.25,-2.21 -2.11,-4.22 -1.54,-3.84 -1.1,-3.41 -1.06,-4.18 -0.43,-3.17 v -0.28 l 3.41,-1.78 0.72,1.68 1.59,3.12 1.82,2.88 1.97,2.64 2.11,2.45 2.21,2.25 3.41,2.98 4.47,3.36 4.23,2.64 3.6,2.16 2.69,1.68 0.86,0.62 0.72,0.68 1.01,1.39 0.63,1.49 0.19,1.48 -0.19,1.49 -0.58,1.39 -0.91,1.3 -1.25,1.1 -0.77,0.44 -0.48,0.28 -1.2,0.29 z" /><path
       id="path70"
       style="fill:#ffffff;fill-opacity:1;fill-rule:evenodd;stroke:none"
       d="m 330.55,163.68 -0.14,-0.1 -0.63,-0.33 -0.58,-0.29 -1.58,-0.91 -1.54,-0.97 -2.22,-1.53 -2.16,-1.59 -2.65,-2.07 -2.5,-2.21 -1.4,-1.3 -2.64,-2.74 -1.21,-1.44 -1.34,-1.54 -2.41,-3.31 -1.11,-1.78 -1.05,-1.88 -1.93,-3.89 -0.82,-2.02 -0.24,-0.82 -0.29,-0.76 -0.33,-0.82 -0.1,-0.87 0.1,-0.24 0.19,-0.19 h 0.05 l 0.19,0.05 0.34,0.38 0.29,0.92 0.09,0.43 0.34,1.06 0.38,1.05 0.87,2.02 0.91,1.97 0.97,1.83 2.21,3.56 1.25,1.68 1.15,1.54 2.6,2.98 1.35,1.44 1.25,1.2 2.6,2.41 1.4,1.1 2.3,1.83 2.46,1.68 1.78,1.25 1.88,1.11 0.96,0.57 1.01,0.53 0.19,0.1 0.15,0.09 0.14,0.34 -0.1,0.19 -0.04,0.15 z" /><path
       id="path72"
       style="fill:#005e7d;fill-opacity:1;fill-rule:evenodd;stroke:none"
       d="m 80.731,184.2 -2.646,-0.14 -2.357,-0.63 -1.443,-0.82 -0.769,-0.72 -0.674,-0.72 -0.433,-0.86 -0.241,-0.87 -0.047,-0.96 0.24,-1.05 0.433,-1.01 0.77,-1.06 1.058,-1.1 0.625,-0.48 2.982,-2.16 5.244,-3.7 3.655,-2.98 3.656,-3.46 2.55,-3.07 1.587,-2.26 1.491,-2.45 1.347,-2.64 1.203,-2.93 1.01,-3.17 0.388,-1.68 5.48,1.3 v 0.43 l -0.14,3.75 -0.58,4.56 -0.68,3.5 -0.96,3.7 -1.34,3.8 -0.82,1.82 -0.87,1.78 -1.97,3.36 -2.164,2.98 -2.357,2.69 -2.501,2.3 -2.598,1.92 -2.646,1.44 -2.741,1.01 -1.395,0.34 z" /><path
       id="path74"
       style="fill:#337e92;fill-opacity:1;fill-rule:evenodd;stroke:none"
       d="m 80.731,184.2 -2.646,-0.14 -2.357,-0.63 -1.443,-0.82 -0.769,-0.72 -0.674,-0.72 -0.433,-0.86 -0.241,-0.87 -0.047,-0.96 0.24,-1.05 0.433,-1.01 0.77,-1.06 1.058,-1.1 0.625,-0.48 2.982,-2.16 5.244,-3.7 3.655,-2.98 3.656,-3.46 2.55,-3.07 1.587,-2.26 1.491,-2.45 1.347,-2.64 1.203,-2.93 1.01,-3.17 0.388,-1.68 5.48,1.3 v 0.43 l -0.14,3.75 -0.58,4.56 -0.68,3.5 -0.96,3.7 -1.34,3.8 -0.82,1.82 -0.87,1.78 -1.97,3.36 -2.164,2.98 -2.357,2.69 -2.501,2.3 -2.598,1.92 -2.646,1.44 -2.741,1.01 -1.395,0.34 z" /><path
       id="path76"
       style="fill:#ffffff;fill-opacity:1;fill-rule:evenodd;stroke:none"
       d="m 78.12,180.72 -0.144,-0.14 -0.048,-0.15 -0.048,-0.09 0.096,-0.2 0.144,-0.04 1.491,-0.48 3.511,-1.73 3.799,-2.59 2.933,-2.55 1.972,-1.92 1.876,-2.11 1.731,-2.35 1.683,-2.5 1.491,-2.69 1.298,-2.88 1.055,-3.07 0.82,-3.17 0.58,-3.4 0.14,-1.73 0.05,-0.19 0.24,-0.1 0.24,0.1 0.05,0.24 -0.14,1.77 -0.53,3.41 -0.87,3.26 -1.06,3.12 -1.344,2.88 -1.539,2.74 -1.683,2.59 -1.779,2.35 -1.924,2.16 -1.972,1.97 -2.981,2.59 -3.895,2.64 -3.559,1.73 -1.539,0.48 z" /><path
       id="path78"
       style="fill:#005e7d;fill-opacity:1;fill-rule:evenodd;stroke:none"
       d="m 77.492,164.88 -0.915,-0.24 -0.578,-0.19 -1.108,-0.53 -0.868,-0.77 -0.723,-0.92 -0.578,-1.01 -0.337,-1.05 -0.144,-1.21 0.096,-1.2 0.144,-0.58 0.097,-0.33 0.144,-0.29 0.434,-0.97 1.301,-1.78 0.578,-0.91 0.289,-0.48 0.386,-1.01 0.192,-1.01 -0.096,-1.06 -0.193,-0.48 -0.337,-0.72 -0.868,-1.4 -0.288,-0.72 -0.29,-1.01 -0.096,-1.88 0.337,-1.29 0.434,-0.73 0.626,-0.72 0.819,-0.62 0.483,-0.24 0.529,-0.29 1.205,-0.29 1.879,-0.39 1.831,-0.33 1.108,-0.44 1.012,-0.57 0.771,-0.97 0.289,-0.62 0.337,-1.01 0.338,-2.17 0.144,-1.05 0.289,-1.06 0.82,-1.98 1.204,-1.82 1.446,-1.54 0.867,-0.63 0.626,-0.43 1.349,-0.58 1.35,-0.34 1.445,-0.14 2.168,0.05 2.75,0.72 1.35,0.58 0.72,0.38 1.44,0.92 1.35,1.01 1.21,1.2 0.53,0.67 0.58,0.72 0.91,1.54 0.72,1.64 0.53,1.73 0.34,1.73 0.05,1.74 -0.1,1.82 -0.38,1.78 -0.24,0.87 -0.34,1.01 -1.06,1.88 -0.67,0.86 -0.58,0.58 -1.4,0.96 -0.67,0.48 -1.45,1.16 -1.98,2.02 -1.01,1.59 -0.287,0.86 -0.289,1.45 -0.385,2.16 -0.482,1.35 -0.337,0.72 -0.53,0.82 -1.446,1.3 -0.916,0.43 -0.626,0.14 -1.204,0.15 -1.928,-0.15 -1.253,-0.14 -0.915,-0.1 -1.638,0.15 -2.217,0.81 -1.59,0.77 -0.867,0.44 -1.831,0.72 -1.879,0.48 z" /><path
       id="path80"
       style="fill:#ffffff;fill-opacity:1;fill-rule:evenodd;stroke:none"
       d="m 88.141,147.24 -1.965,-0.05 -1.917,-0.29 -1.916,-0.52 -0.911,-0.34 -0.144,-0.1 -0.047,-0.24 0.047,-0.09 0.096,-0.1 0.096,-0.09 h 0.096 l 0.096,0.04 0.91,0.34 1.821,0.43 1.869,0.29 1.869,0.1 1.869,-0.15 1.869,-0.33 1.773,-0.53 1.773,-0.77 0.815,-0.48 h 0.144 l 0.24,0.05 0.048,0.09 0.047,0.15 -0.047,0.24 -0.096,0.05 -0.911,0.48 -1.773,0.81 -1.869,0.53 -1.965,0.34 z" /><path
       id="path82"
       style="fill:#ffffff;fill-opacity:1;fill-rule:evenodd;stroke:none"
       d="m 78.89,160.92 -0.241,-0.05 v -0.09 H 78.6 v -0.15 l 0.049,-0.19 0.144,-0.05 1.739,-0.81 3.766,-2.4 3.863,-3.16 3.815,-3.79 3.476,-4.31 2.269,-3.55 1.304,-2.4 1.115,-2.49 0.91,-2.49 0.68,-2.54 0.39,-2.59 0.09,-1.24 0.05,-0.1 0.15,-0.19 h 0.14 v -0.05 l 0.1,0.05 0.19,0.19 v 0.1 l -0.1,1.29 -0.38,2.59 -0.68,2.59 -0.97,2.54 -1.106,2.58 -1.4,2.45 -2.269,3.55 -3.525,4.41 -3.863,3.83 -3.959,3.21 -3.767,2.4 -1.786,0.86 z" /><path
       id="path84"
       style="fill:#30394b;fill-opacity:1;fill-rule:evenodd;stroke:none"
       d="m 175.6,308.08 0.48,-0.14 0.38,-0.29 0.15,-0.24 0.14,-0.34 0.05,-0.33 V 172.76 l -0.05,-0.48 -0.29,-0.72 -0.86,-1.01 -0.77,-0.44 -62.38,-36.01 -0.38,-0.2 -0.72,-0.05 -0.53,0.29 -0.29,0.63 -0.05,0.48 v 133.26 l 0.05,0.48 0.24,1.01 0.58,0.86 0.72,0.72 0.43,0.29 62.33,36.02 0.24,0.1 z m 3.51,14.72 -0.82,-0.1 -0.48,-0.24 -68.1,-39.29 -0.48,-0.33 -0.82,-0.87 -0.58,-1.01 -0.38,-1.15 -0.05,-0.63 V 118.95 l 0.05,-0.53 0.34,-0.72 0.62,-0.34 0.87,0.05 0.48,0.24 68.05,39.24 0.53,0.38 0.77,0.87 0.62,1.01 0.34,1.15 0.05,0.63 v 160.23 l -0.05,0.49 -0.34,0.77 z" /><path
       id="path86"
       style="fill:#4d4d4d;fill-opacity:1;fill-rule:evenodd;stroke:none"
       d="m 175.56,308.04 -0.53,-0.1 -0.24,-0.09 -62.3,-36.02 -0.43,-0.29 -0.72,-0.72 -0.53,-0.87 -0.24,-1.01 -0.05,-0.48 V 135.19 l 0.05,-0.48 0.29,-0.62 0.53,-0.29 0.72,0.05 0.38,0.19 62.3,36.02 0.77,0.43 0.86,1.01 0.29,0.73 0.05,0.48 v 133.98 l -0.05,0.34 -0.14,0.34 -0.15,0.24 -0.38,0.29 z" /><path
       id="path88"
       style="fill:#4d4d4d;fill-opacity:1;fill-rule:evenodd;stroke:none"
       d="m 110.52,207.72 v -72.53 l 0.05,-0.48 0.29,-0.62 0.52,-0.29 0.72,0.05 0.39,0.19 62.23,35.95 0.62,0.39 0.58,0.48 z" /><path
       id="path90"
       style="fill:#005e7d;fill-opacity:1;fill-rule:evenodd;stroke:none"
       d="m 171.72,306.12 -59.23,-34.26 -0.43,-0.29 -0.72,-0.73 -0.53,-0.86 -0.24,-1.01 -0.05,-0.48 V 138.12 l 59.28,34.22 0.72,0.48 0.86,0.96 0.29,0.77 0.05,0.48 z" /><path
       id="path92"
       style="fill:#4d4d4d;fill-opacity:1;fill-rule:evenodd;stroke:none"
       d="m 100.87,285.6 -0.14,-0.29 -0.14,-0.29 -0.2,-0.38 -0.19,-0.87 v -0.43 -160.33 l 0.05,-0.58 0.34,-1.15 0.62,-1.01 0.77,-0.87 0.53,-0.33 2.65,-1.54 0.48,-0.24 1.1,-0.24 1.11,-0.05 1.06,0.19 0.53,0.2 v 0 l -0.43,-0.15 -0.73,0.05 -0.52,0.38 -0.34,0.72 v 0.49 160.23 0.72 l 0.29,0.72 0.14,0.43 0.24,0.39 z" /><path
       id="path94"
       style="fill:#337e92;fill-opacity:1;fill-rule:evenodd;stroke:none"
       d="m 145.73,149.76 -0.43,-0.05 -0.81,-0.24 -0.34,-0.24 -0.86,-0.63 -1.43,-1.6 -1.1,-1.8 -0.62,-2.08 -0.1,-1.07 0.05,-0.63 0.43,-1.21 0.62,-0.48 0.53,-0.05 0.43,0.05 0.76,0.24 0.39,0.19 0.9,0.68 1.44,1.55 1,1.85 0.63,2.03 0.14,1.07 v 0.68 l -0.43,1.16 -0.72,0.48 z" /><path
       id="path96"
       style="fill:#337e92;fill-opacity:1;fill-rule:evenodd;stroke:none"
       d="m 143.92,300.36 -0.2,-0.1 -0.53,-0.39 -0.58,-1.02 -0.05,-0.59 0.05,-0.24 0.14,-0.39 0.3,-0.15 h 0.43 l 0.24,0.15 0.44,0.34 0.58,1.02 0.1,0.59 -0.05,0.24 -0.14,0.39 -0.3,0.15 z" /><path
       id="path98"
       style="fill:#337e92;fill-opacity:1;fill-rule:evenodd;stroke:none"
       d="m 136.96,290.88 -0.34,-0.05 -0.24,-0.1 -0.39,-0.29 -0.53,-0.93 -0.1,-0.54 0.05,-0.24 0.14,-0.34 0.3,-0.15 h 0.38 l 0.15,0.15 0.44,0.29 0.53,0.93 0.05,0.54 v 0.24 l -0.15,0.34 z" /><path
       id="path100"
       style="fill:#337e92;fill-opacity:1;fill-rule:evenodd;stroke:none"
       d="m 151.56,299.28 -0.39,-0.1 -0.24,-0.09 -11.22,-6.4 -0.48,-0.33 -0.58,-0.91 -0.05,-0.57 v -0.24 l 0.19,-0.34 0.29,-0.14 0.39,0.05 0.24,0.09 11.22,6.4 0.48,0.34 0.58,0.95 0.05,0.57 v 0.19 l -0.14,0.34 z" /><path
       id="path102"
       style="fill:#4d4d4d;fill-opacity:1;fill-rule:evenodd;stroke:none"
       d="m 172.21,327.12 -1.16,-0.24 -0.58,-0.24 -68.03,-39.32 -0.48,-0.38 -0.82,-0.87 -0.34,-0.48 7.22,-4.19 0.33,0.48 0.82,0.87 0.48,0.33 68.09,39.37 0.43,0.15 0.77,0.14 0.63,-0.29 0.38,-0.58 0.05,-0.43 -0.05,0.58 -0.38,1.01 -0.58,0.96 -0.77,0.77 -0.48,0.34 -2.65,1.54 -0.53,0.24 -1.2,0.24 z" /><path
       id="path104"
       style="fill:#005e7d;fill-opacity:1;fill-rule:evenodd;stroke:none"
       d="m 167.83,323.28 -0.53,-0.24 -7.29,-4.26 -0.19,-0.09 -0.24,-0.34 -0.1,-0.24 v -1.02 l 0.05,-0.14 0.24,-0.34 0.19,-0.1 0.53,-0.19 h 1.2 l 0.53,0.24 7.29,4.21 0.19,0.09 0.24,0.39 0.1,0.19 v 1.02 l -0.05,0.19 -0.19,0.34 -0.19,0.05 -0.58,0.24 z" /><path
       id="path106"
       style="fill:#005e7d;fill-opacity:1;fill-rule:evenodd;stroke:none"
       d="m 167.83,323.28 -0.53,-0.24 -7.29,-4.26 -0.19,-0.09 -0.24,-0.34 -0.1,-0.24 v -1.02 l 0.05,-0.14 0.24,-0.34 0.19,-0.1 0.53,-0.19 h 1.2 l 0.53,0.24 7.29,4.21 0.19,0.09 0.24,0.39 0.1,0.19 v 1.02 l -0.05,0.19 -0.19,0.34 -0.19,0.05 -0.58,0.24 z" /><path
       id="path108"
       style="fill:#005e7d;fill-opacity:1;fill-rule:evenodd;stroke:none"
       d="m 167.82,323.28 -0.53,-0.29 -7.33,-4.14 -0.24,-0.14 -0.24,-0.33 v -0.39 l 0.19,-0.33 0.24,-0.09 0.53,-0.29 1.21,0.05 0.53,0.24 7.33,4.14 0.24,0.14 0.24,0.38 0.05,0.34 -0.24,0.33 -0.19,0.14 -0.58,0.24 z" /><path
       id="path110"
       style="fill:#337e92;fill-opacity:1;fill-rule:evenodd;stroke:none"
       d="m 167.82,323.28 -0.53,-0.29 -7.33,-4.14 -0.24,-0.14 -0.24,-0.33 v -0.39 l 0.19,-0.33 0.24,-0.09 0.53,-0.29 1.21,0.05 0.53,0.24 7.33,4.14 0.24,0.14 0.24,0.38 0.05,0.34 -0.24,0.33 -0.19,0.14 -0.58,0.24 z" /><path
       id="path112"
       style="fill:#005e7d;fill-opacity:1;fill-rule:evenodd;stroke:none"
       d="m 103.03,261.36 -0.19,-0.05 -0.38,-0.29 -0.44,-0.19 -0.19,-0.19 -0.19,-0.39 v -0.24 -17.89 l 0.1,-0.58 0.57,-1.06 0.48,-0.38 0.15,-0.05 0.43,-0.05 0.14,0.05 0.43,0.24 0.44,0.24 0.19,0.19 0.19,0.39 -0.05,0.24 v 17.84 l -0.05,0.63 -0.57,1.06 -0.48,0.34 -0.19,0.09 z" /><path
       id="path114"
       style="fill:#005e7d;fill-opacity:1;fill-rule:evenodd;stroke:none"
       d="m 103.03,261.36 -0.19,-0.05 -0.38,-0.29 -0.44,-0.19 -0.19,-0.19 -0.19,-0.39 v -0.24 -17.89 l 0.1,-0.58 0.57,-1.06 0.48,-0.38 0.15,-0.05 0.43,-0.05 0.14,0.05 0.43,0.24 0.44,0.24 0.19,0.19 0.19,0.39 -0.05,0.24 v 17.84 l -0.05,0.63 -0.57,1.06 -0.48,0.34 -0.19,0.09 z" /><path
       id="path116"
       style="fill:#005e7d;fill-opacity:1;fill-rule:evenodd;stroke:none"
       d="m 102.14,260.88 -0.3,-0.19 -0.2,-0.39 v -0.28 -17.86 l 0.05,-0.62 0.59,-1.01 0.5,-0.39 0.25,-0.09 0.39,-0.05 0.3,0.24 0.2,0.34 v 0.28 17.86 l -0.1,0.58 -0.54,1.05 -0.5,0.39 -0.25,0.14 z" /><path
       id="path118"
       style="fill:#337e92;fill-opacity:1;fill-rule:evenodd;stroke:none"
       d="m 102.14,260.88 -0.3,-0.19 -0.2,-0.39 v -0.28 -17.86 l 0.05,-0.62 0.59,-1.01 0.5,-0.39 0.25,-0.09 0.39,-0.05 0.3,0.24 0.2,0.34 v 0.28 17.86 l -0.1,0.58 -0.54,1.05 -0.5,0.39 -0.25,0.14 z" /><path
       id="path120"
       style="fill:#005e7d;fill-opacity:1;fill-rule:evenodd;stroke:none"
       d="m 103.05,237.36 -0.19,-0.1 -0.39,-0.24 -0.44,-0.19 -0.19,-0.19 -0.2,-0.38 v -0.24 -8.38 l 0.1,-0.58 0.58,-1.05 0.49,-0.39 0.15,-0.09 0.44,-0.05 0.14,0.05 0.44,0.24 0.44,0.29 0.19,0.14 0.15,0.43 v 0.19 8.38 l -0.05,0.63 -0.58,1 -0.49,0.39 -0.2,0.09 z" /><path
       id="path122"
       style="fill:#005e7d;fill-opacity:1;fill-rule:evenodd;stroke:none"
       d="m 103.05,237.36 -0.19,-0.1 -0.39,-0.24 -0.44,-0.19 -0.19,-0.19 -0.2,-0.38 v -0.24 -8.38 l 0.1,-0.58 0.58,-1.05 0.49,-0.39 0.15,-0.09 0.44,-0.05 0.14,0.05 0.44,0.24 0.44,0.29 0.19,0.14 0.15,0.43 v 0.19 8.38 l -0.05,0.63 -0.58,1 -0.49,0.39 -0.2,0.09 z" /><path
       id="path124"
       style="fill:#005e7d;fill-opacity:1;fill-rule:evenodd;stroke:none"
       d="m 102.14,237 -0.3,-0.24 -0.2,-0.39 v -0.29 -8.47 l 0.05,-0.58 0.59,-1.02 0.5,-0.43 0.25,-0.1 h 0.39 l 0.3,0.19 0.2,0.39 v 0.24 8.52 l -0.1,0.63 -0.59,1.02 -0.45,0.38 -0.25,0.1 z" /><path
       id="path126"
       style="fill:#337e92;fill-opacity:1;fill-rule:evenodd;stroke:none"
       d="m 102.14,237 -0.3,-0.24 -0.2,-0.39 v -0.29 -8.47 l 0.05,-0.58 0.59,-1.02 0.5,-0.43 0.25,-0.1 h 0.39 l 0.3,0.19 0.2,0.39 v 0.24 8.52 l -0.1,0.63 -0.59,1.02 -0.45,0.38 -0.25,0.1 z" /><path
       id="path128"
       style="fill:#263238;fill-opacity:1;fill-rule:evenodd;stroke:none"
       d="m 152.36,264.24 -2.51,-0.05 -3.8,-0.29 -2.51,-0.05 -2.6,-0.04 -5.15,-0.34 -2.6,-0.29 -0.96,-0.14 -1.5,-0.58 -0.82,-0.63 -0.24,-0.38 -0.14,-0.39 -0.1,-0.72 0.1,-0.33 -0.05,-0.58 -0.38,-1.11 -0.39,-0.48 -0.58,-0.63 -1.39,-1.15 -0.63,-0.58 -0.43,-0.58 -0.73,-1.2 -0.43,-1.4 v -1.44 l 0.1,-0.72 0.05,-0.43 0.14,-0.44 0.39,-0.77 0.48,-1.15 0.19,-0.82 v -0.43 l -0.05,-0.44 -0.34,-0.86 -0.81,-1.21 -0.63,-0.77 -0.72,-1.05 -0.97,-2.31 -0.43,-2.46 0.14,-2.45 0.39,-1.21 0.58,-1.49 1.49,-2.69 0.96,-1.26 2.94,-4.13 0.68,-0.82 1.63,-1.4 0.97,-0.53 0.91,-0.53 1.98,-0.81 2.07,-0.63 2.07,-0.39 1.11,-0.04 1.73,-0.1 3.52,0.34 3.37,0.91 3.22,1.4 1.5,0.96 0.72,0.53 1.11,1.39 1.01,2.51 0.62,2.74 0.53,1.78 0.77,1.59 1.11,1.35 0.77,0.53 0.44,0.28 0.91,0.78 1.25,1.39 1.3,2.31 0.82,2.6 0.34,2.74 -0.19,2.75 -0.63,1.97 -0.62,1.2 -0.78,1.11 -0.96,0.96 -0.58,0.43 0.1,0.82 0.14,4.19 -0.33,1.97 -0.48,1.06 -0.29,0.34 -0.73,0.58 -1.59,0.91 -1.63,0.67 -1.78,0.44 -0.92,0.09 z" /><path
       id="path130"
       style="fill:#f2f6f8;fill-opacity:1;fill-rule:evenodd;stroke:none"
       d="m 158.04,240.6 4.19,-22.43 6.4,-4.18 8.72,-5.68 1.59,-1.11 2.5,-1.49 2.27,-0.96 2.5,-0.44 h 1.59 l 9.01,-0.09 1.83,-0.1 3.8,9.82 -16.04,4.23 -6.69,6.16 -10.69,10.16 -1.69,1.68 -2.5,2.36 -1.69,1.06 -1.15,0.48 -2.07,0.43 z" /><path
       id="path132"
       style="fill:#005e7d;fill-opacity:1;fill-rule:evenodd;stroke:none"
       d="m 220.01,233.64 -29.3,-10.35 -8.07,-34.89 0.72,-0.72 27.81,10.4 9.51,34.84 z" /><path
       id="path134"
       style="fill:#337e97;fill-opacity:1;fill-rule:evenodd;stroke:none"
       d="m 190.73,223.32 -8.09,-34.92 0.72,-0.72 8.04,34.92 z" /><path
       id="path136"
       style="fill:#005e7d;fill-opacity:1;fill-rule:evenodd;stroke:none"
       d="m 220.68,232.92 -29.3,-10.35 -8.02,-34.89 27.81,10.4 z" /><path
       id="path138"
       style="fill:#000000;fill-opacity:1;fill-rule:evenodd;stroke:none"
       d="m 213.12,205.32 -6.36,-0.1 0.19,-0.28 0.88,-0.66 1.5,-0.67 2.04,-0.33 1.22,0.05 z" /><path
       id="path140"
       style="fill:#000000;fill-opacity:1;fill-rule:evenodd;stroke:none"
       d="m 211.51,227.28 -1.67,-0.39 -1.57,-0.72 -5.3,-1.59 -1.67,-0.77 -1.91,-0.96 -0.77,-0.53 -0.14,-0.24 -0.24,-1.16 13.56,4.82 0.24,1.2 v 0.1 l -0.1,0.14 z" /><path
       id="path142"
       style="fill:#353535;fill-opacity:1;fill-rule:evenodd;stroke:none"
       d="m 208.4,231.48 -1.35,-0.34 -0.82,-0.23 -1.25,-0.53 -1.35,-0.86 -1.06,-1.48 -0.04,-0.29 -1.02,-0.43 -1.06,-0.29 -0.96,-0.38 -0.72,-0.53 -0.05,-0.28 -0.24,-0.72 14.98,5.21 v 0.15 l 0.14,0.57 v 0.14 l -0.24,0.15 -0.63,-0.05 -0.67,-0.19 -1.69,-0.58 v 0.1 0.38 l -0.48,0.43 z" /><path
       id="path144"
       style="fill:#353535;fill-opacity:1;fill-rule:evenodd;stroke:none"
       d="m 212.52,230.28 -12.19,-4.48 -0.29,-1.39 0.97,0.38 1.01,0.1 0.29,-0.24 v -0.2 l -0.33,-1.39 -0.2,-0.82 7.84,3.08 v 0.19 l 0.29,1.4 0.05,0.34 0.33,0.53 0.83,0.62 0.96,0.44 z" /><path
       id="path146"
       style="fill:#353535;fill-opacity:1;fill-rule:evenodd;stroke:none"
       d="m 211.99,227.28 -1.65,-0.39 -1.64,-0.72 -5.32,-1.6 -1.69,-0.77 -1.98,-0.97 -0.77,-0.58 -0.1,-0.19 -0.24,-1.26 13.68,4.93 0.09,0.29 0.15,0.87 v 0.15 l -0.1,0.14 z" /><path
       id="path148"
       style="fill:#fecace;fill-opacity:1;fill-rule:evenodd;stroke:none"
       d="m 218.59,221.76 -0.68,-0.29 -0.43,-0.43 -0.53,-1.88 -0.82,-2.94 -0.05,-0.2 -0.53,-0.48 -1.21,-0.77 -2.31,-1.06 -2.41,-0.77 -0.97,-0.19 -1.59,-0.24 -1.64,-0.49 -0.67,-0.43 -0.44,-0.53 -0.19,-0.72 0.15,-1.26 0.38,-1.15 0.19,-0.58 0.58,-0.92 0.73,-0.82 0.86,-0.62 1.06,-0.44 1.21,-0.29 2.03,-0.14 1.49,0.14 0.77,0.15 1.64,0.72 1.54,1.21 1.31,1.78 0.48,1.11 0.43,1.44 0.39,2.9 0.09,2.7 0.05,2.31 0.19,0.87 0.15,0.82 -0.19,0.86 -0.24,0.34 -0.39,0.24 z" /><path
       id="path150"
       style="fill:#e4ecf1;fill-opacity:1;fill-rule:evenodd;stroke:none"
       d="m 153.95,241.08 -1.05,-0.24 h -0.1 l -0.15,-1.59 -0.43,-4.85 -1.3,-13.61 -3.03,-31.07 -0.14,-1.06 v -0.24 l -2.26,-23.76 -1.25,-12.26 v 0 l 3.99,2.26 2.31,1.35 17.12,9.86 1.29,0.72 3.13,1.82 -1.15,6.93 -1.98,9.86 -1.44,6.78 -1.01,5.67 -0.24,3.08 -0.05,2.84 v 5.72 l 0.2,2.79 0.14,1.11 0.1,2.16 v 1.11 l -0.15,2.02 -0.53,3.51 -0.91,4.47 -0.62,2.65 -0.29,1.39 -0.87,2.79 -0.53,1.35 -0.29,0.67 -0.38,0.67 -0.77,1.4 -1.44,1.78 -1.16,0.96 -0.62,0.33 -0.43,0.25 -0.49,0.14 -1.05,0.24 z" /><path
       id="path152"
       style="fill:#fecace;fill-opacity:1;fill-rule:evenodd;stroke:none"
       d="m 132.93,195.6 -0.28,-0.48 -1.02,-1.73 -1.73,-3.46 -1.44,-3.36 -1.11,-3.32 -0.82,-3.31 -0.62,-3.27 -0.58,-4.76 -0.15,-3.07 -0.09,-3.55 0.05,-3.42 0.09,-5.09 -0.09,-10.38 -0.1,-5.04 16.46,9.51 2.75,1.54 3.94,2.26 2.31,1.34 17.14,9.85 -0.29,2.36 -0.19,2.3 -0.43,3.99 -0.44,3.7 -0.96,7.64 -0.87,5.76 -2.31,-0.77 -4.38,-1.2 -4.09,-0.81 -3.75,-0.39 -1.74,-0.09 h -0.48 l -1.06,0.04 -1.01,0.1 -0.62,0.05 -1.01,0.09 -2.07,0.44 -2.03,0.57 -1.87,0.72 -1.69,0.92 -1.44,1.05 -1.11,1.2 -0.72,1.35 z" /><path
       id="path154"
       style="fill:#005e7d;fill-opacity:1;fill-rule:evenodd;stroke:none"
       d="m 132.92,195.72 -1.78,-2.74 -3.18,-5.67 -1.4,-2.99 -0.57,-1.34 -0.87,-3.18 -0.72,-3.65 -0.53,-4.18 -0.2,-2.31 -0.14,-2.45 -0.15,-5.44 v -3.03 l -0.04,-7.88 -0.1,-10.58 1.78,1.06 16.48,9.52 2.7,1.54 4,2.26 2.31,1.34 17.15,9.86 1.3,0.72 -0.29,2.55 -0.29,2.36 -0.43,3.17 -0.44,2.84 -0.62,3.99 -1.64,7.88 -0.96,3.9 -0.05,-0.15 -0.72,-0.67 -1.02,-0.63 -1.63,-0.67 -2.32,-0.62 -3.18,-0.48 -4.14,-0.29 -2.5,-0.05 h -0.87 l -1.11,0.05 -1.01,0.05 h -0.1 l -2.02,0.19 -3.33,0.67 -2.6,0.87 -1.88,1.01 -1.34,1.01 -0.87,0.96 -0.68,1.01 z" /><path
       id="path156"
       style="fill:#30394b;fill-opacity:1;fill-rule:evenodd;stroke:none"
       d="m 132.92,195.72 -1.78,-2.74 -3.18,-5.67 -1.4,-2.99 -0.57,-1.34 -0.87,-3.18 -0.72,-3.65 -0.53,-4.18 -0.2,-2.31 -0.14,-2.45 -0.15,-5.44 v -3.03 l -0.04,-7.88 -0.1,-10.58 1.78,1.06 16.48,9.52 2.7,1.54 4,2.26 2.31,1.34 17.15,9.86 1.3,0.72 -0.29,2.55 -0.29,2.36 -0.43,3.17 -0.44,2.84 -0.62,3.99 -1.64,7.88 -0.96,3.9 -0.05,-0.15 -0.72,-0.67 -1.02,-0.63 -1.63,-0.67 -2.32,-0.62 -3.18,-0.48 -4.14,-0.29 -2.5,-0.05 h -0.87 l -1.11,0.05 -1.01,0.05 h -0.1 l -2.02,0.19 -3.33,0.67 -2.6,0.87 -1.88,1.01 -1.34,1.01 -0.87,0.96 -0.68,1.01 z" /><path
       id="path158"
       style="fill:#4d4d4d;fill-opacity:1;fill-rule:evenodd;stroke:none"
       d="m 160.92,174.6 -1.11,-1.1 -2.46,-1.73 -2.69,-1.3 -2.94,-0.86 -1.54,-0.19 -0.58,-4.47 -1.4,-10.27 v 0 l 2.31,1.34 1.98,9.32 0.29,1.53 1.15,0.53 2.03,1.2 1.64,1.3 1.25,1.24 1.3,1.78 0.72,1.49 z" /><path
       id="path160"
       style="fill:#005e7d;fill-opacity:1;fill-rule:evenodd;stroke:none"
       d="m 140.83,239.4 -6.64,-0.67 -1.54,-0.44 -1.88,-0.86 -1.01,-0.72 -0.82,-0.82 -0.67,-0.96 -0.43,-1.11 -0.34,-1.3 -0.1,-0.72 -0.28,-1.73 -0.29,-4.67 0.19,-2.98 0.34,-2.12 0.29,-1.11 3.22,-12.12 1.83,-6.69 -0.24,-0.33 -1.73,-2.79 -1.59,-2.94 -1.74,-3.85 -1.73,-4.76 -1.54,-5.58 -1.1,-6.35 -0.39,-3.51 1.49,-0.92 3.13,-1.53 3.18,-1.26 3.37,-0.86 3.41,-0.63 3.37,-0.38 3.42,-0.05 3.37,0.1 3.27,0.33 3.18,0.48 2.93,0.68 2.79,0.77 2.55,0.96 2.27,0.96 1.92,1.11 1.64,1.1 0.62,0.58 -0.29,2.5 -1.3,7.17 -1.58,8.04 -1.26,6.92 -0.28,2.31 0.04,1.01 0.34,5.34 0.39,3.75 0.24,1.5 0.86,1.01 1.35,1.97 0.91,1.97 0.44,1.88 0.19,1.87 -0.19,1.78 -0.44,1.74 -0.67,1.63 -0.38,0.77 -0.77,1.44 -1.74,2.75 -2.6,3.75 -2.64,3.08 -1.59,1.59 -1.4,1.1 -1.06,0.63 -0.43,0.05 z" /><path
       id="path162"
       style="fill:#fc6d78;fill-opacity:1;fill-rule:evenodd;stroke:none"
       d="m 140.83,239.4 -6.64,-0.67 -1.54,-0.44 -1.88,-0.86 -1.01,-0.72 -0.82,-0.82 -0.67,-0.96 -0.43,-1.11 -0.34,-1.3 -0.1,-0.72 -0.28,-1.73 -0.29,-4.67 0.19,-2.98 0.34,-2.12 0.29,-1.11 3.22,-12.12 1.83,-6.69 -0.24,-0.33 -1.73,-2.79 -1.59,-2.94 -1.74,-3.85 -1.73,-4.76 -1.54,-5.58 -1.1,-6.35 -0.39,-3.51 1.49,-0.92 3.13,-1.53 3.18,-1.26 3.37,-0.86 3.41,-0.63 3.37,-0.38 3.42,-0.05 3.37,0.1 3.27,0.33 3.18,0.48 2.93,0.68 2.79,0.77 2.55,0.96 2.27,0.96 1.92,1.11 1.64,1.1 0.62,0.58 -0.29,2.5 -1.3,7.17 -1.58,8.04 -1.26,6.92 -0.28,2.31 0.04,1.01 0.34,5.34 0.39,3.75 0.24,1.5 0.86,1.01 1.35,1.97 0.91,1.97 0.44,1.88 0.19,1.87 -0.19,1.78 -0.44,1.74 -0.67,1.63 -0.38,0.77 -0.77,1.44 -1.74,2.75 -2.6,3.75 -2.64,3.08 -1.59,1.59 -1.4,1.1 -1.06,0.63 -0.43,0.05 z" /><path
       id="path164"
       style="fill:#ffffff;fill-opacity:1;fill-rule:evenodd;stroke:none"
       d="m 138.69,239.4 -1.15,-0.05 -1.44,-0.09 -1.92,-0.1 -3.78,-0.58 -1.87,-0.43 -0.77,-0.24 -1.34,-0.77 -1.06,-0.91 -0.76,-1.01 -0.82,-1.49 -0.48,-1.68 v -0.44 -0.14 l 2.45,-10.34 4.98,-20.71 -0.14,-0.24 -0.05,-0.1 -0.05,-0.05 -0.38,-0.77 -0.05,-0.14 -0.05,-0.15 -0.04,-0.04 v -0.05 l -0.05,-0.05 v -0.05 l -0.05,-0.05 v -0.04 l -0.14,-0.24 -0.1,-0.24 -0.14,-0.24 -0.15,-0.24 -0.09,-0.29 -0.1,-0.24 -0.24,-0.58 -0.29,-0.63 -0.14,-0.28 -0.1,-0.2 -0.09,-0.24 -0.1,-0.19 -0.43,-1.01 -0.43,-1.1 -0.14,-0.29 -0.1,-0.34 -0.19,-0.48 -0.24,-0.62 -0.19,-0.58 -0.15,-0.43 -0.19,-0.44 v -0.04 l -0.33,-0.97 -0.34,-0.96 -0.14,-0.48 -0.15,-0.48 -0.09,-0.53 -0.19,-0.48 -0.29,-1.06 -0.29,-1.05 -0.14,-0.48 -0.1,-0.53 -0.14,-0.53 -0.15,-0.53 -0.04,-0.34 -0.15,-0.77 -0.29,-1.58 -0.23,-1.64 -1.06,-8.6 -2.4,-22.78 -0.81,-8.32 v 0 l 4.55,2.64 1.82,1.06 16.39,9.52 0.43,4.32 0.39,4.04 0.24,2.69 0.28,2.74 1.34,11.83 1.39,12.02 0.1,0.62 0.05,0.67 0.38,3.9 0.39,3.65 v 0.1 0.04 0.2 0.33 l 0.52,5.39 0.29,6.87 -0.1,3.7 -0.14,1.49 -0.24,1.83 -0.38,1.92 -0.63,2.89 -1.53,5.72 -2.4,7.54 -1.05,2.98 v 0.05 l -0.05,0.05 v 0.09 l -0.24,0.58 -0.04,0.24 v 0.05 z" /><path
       id="path166"
       style="fill:#f2f6f8;fill-opacity:1;fill-rule:evenodd;stroke:none"
       d="m 131.95,233.16 -6.36,-11.99 5.05,-20.74 -0.63,-1.15 -3.4,-7.75 -1.79,-5.2 -1.02,-3.8 -0.44,-1.93 0.97,2.55 1.85,4.33 1.84,3.52 1.65,2.74 2.19,2.98 1.75,1.79 0.19,0.14 -2.87,11.79 0.3,1.49 1.16,7.85 0.34,2.69 0.29,4.24 -0.14,3.18 -0.54,2.4 z" /><path
       id="path168"
       style="fill:#f2f6f8;fill-opacity:1;fill-rule:evenodd;stroke:none"
       d="m 152.88,244.08 v -4.78 l 0.63,-0.2 1.15,-0.48 0.58,-0.29 0.72,-0.44 1.49,-1.11 2.26,-2.07 3.75,-4.21 0.58,-0.82 -3.13,5.22 -4.13,6.62 -0.63,0.77 -0.86,1.06 -0.77,0.54 -0.97,0.19 z m 11.16,-14.4 v 0 z" /><path
       id="path170"
       style="fill:#337e97;fill-opacity:1;fill-rule:evenodd;stroke:none"
       d="m 140.28,241.2 -0.49,-0.19 -0.77,-0.77 -0.54,-1.34 -0.33,-1.77 -0.15,-3.31 0.15,-5.42 0.14,-2.97 0.15,-2.26 v -1.29 h 1.16 v 1.29 l -0.15,2.35 -0.29,3.7 0.05,7.19 0.44,2.54 0.39,0.76 0.29,0.34 0.19,0.05 z" /><path
       id="path172"
       style="fill:#263238;fill-opacity:1;fill-rule:evenodd;stroke:none"
       d="m 131.88,275.28 -1.06,-0.05 -0.96,-0.48 -0.38,-0.33 4.22,-3.46 0.29,0.43 0.29,0.91 v 0.96 l -0.48,0.92 -0.38,0.38 -0.1,0.1 -0.43,0.33 z" /><path
       id="path174"
       style="fill:#263238;fill-opacity:1;fill-rule:evenodd;stroke:none"
       d="m 151.29,282.36 -4.52,-0.1 -2.54,-0.33 -1.3,-0.24 -2.64,-1.01 -2.36,-1.54 -1.53,-1.45 -0.82,-1.1 -0.34,-0.58 -0.43,-0.68 -0.57,-1.49 -0.2,-0.82 -0.09,-0.67 -0.1,-0.58 -0.38,-0.14 -0.77,-0.43 -1.01,-0.97 -1.06,-1.68 -0.72,-2.07 -0.43,-2.4 v -2.51 l 0.29,-2.45 0.77,-2.36 0.53,-1.11 0.67,-1.01 1.39,-1.92 2.31,-2.65 2.93,-3.03 1.48,-1.92 0.53,-1.11 0.05,-0.53 21.95,16.22 0.58,0.19 1.1,0.43 0.96,0.63 0.87,0.72 0.77,0.91 0.57,1.01 0.43,1.06 0.24,1.16 0.05,0.62 0.05,0.77 -0.14,1.64 -0.24,1.54 -0.48,1.59 -0.29,0.72 -0.48,1.1 -1.3,2.12 -1.78,1.93 -2.21,1.73 -2.73,1.35 -3.22,1.01 z" /><path
       id="path176"
       style="fill:#fecace;fill-opacity:1;fill-rule:evenodd;stroke:none"
       d="m 159.52,274.68 v -1.3 l -0.34,-2.11 -0.53,-1.44 -0.82,-1.45 -1.2,-1.44 -1.73,-1.44 -2.17,-1.44 -1.34,-0.72 -1.11,-0.48 -2.45,-0.77 -3.81,-0.72 -2.11,-0.24 -1.54,-0.82 -0.39,0.43 -0.81,0.58 -0.82,0.38 -0.82,0.24 -0.77,-0.04 -0.82,-0.2 -1.1,-0.62 -0.73,-0.67 -0.28,-0.39 -0.44,-0.86 -0.19,-1.01 v -1.01 l 0.19,-1.06 0.44,-1.06 0.57,-1 0.77,-0.92 0.44,-0.38 0.52,-0.48 0.97,-0.58 0.86,-0.29 0.72,-0.05 1.3,0.34 0.2,0.24 0.09,-12.35 0.15,-0.38 1.78,-2.21 1.73,-1.21 1.54,-0.67 0.86,-0.34 0.82,-0.24 1.49,-0.28 1.93,-0.1 2.02,0.43 1.3,0.77 0.33,0.53 0.15,0.24 0.05,0.58 -0.24,0.86 -1.06,1.49 -0.29,0.29 v 5.62 l 2.21,-0.33 2.94,-0.2 1.63,0.2 0.63,0.24 0.57,0.33 1.11,1.01 0.77,1.06 0.72,1.49 0.58,1.87 0.48,2.45 0.24,3.03 0.05,1.78 v 2.07 l -0.19,3.7 -0.44,3.02 -0.57,2.46 -0.72,2.01 -0.87,1.45 -0.96,1.15 -0.97,0.72 z" /><path
       id="path178"
       style="fill:#263238;fill-opacity:1;fill-rule:evenodd;stroke:none"
       d="m 140.4,261.96 v -5.52 h 0.58 l 0.91,0.39 0.67,0.68 0.43,0.93 0.05,0.54 v 0.05 0.1 l -0.05,0.58 -0.43,0.98 -0.67,0.73 -0.96,0.49 z" /><path
       id="path180"
       style="fill:#000000;fill-opacity:1;fill-rule:evenodd;stroke:none"
       d="m 160.87,262.44 -0.47,-0.2 -0.33,-0.39 -0.23,-0.44 v -0.29 -0.29 l 0.19,-0.44 0.37,-0.39 0.42,-0.2 h 0.56 l 0.42,0.24 0.33,0.35 0.23,0.49 v 0.24 0.29 l -0.23,0.44 -0.33,0.35 -0.42,0.24 z" /><path
       id="path182"
       style="fill:#000000;fill-opacity:1;fill-rule:evenodd;stroke:none"
       d="m 150.59,261.96 -0.49,-0.2 -0.4,-0.39 -0.3,-0.48 v -0.3 -0.29 l 0.2,-0.54 0.4,-0.44 0.49,-0.19 0.3,-0.05 h 0.3 l 0.49,0.2 0.45,0.43 0.2,0.49 0.05,0.3 v 0.29 l -0.2,0.54 -0.4,0.39 -0.49,0.19 -0.3,0.05 z" /><path
       id="path184"
       style="fill:#000000;fill-opacity:1;fill-rule:evenodd;stroke:none"
       d="m 161.76,266.04 -0.62,-0.05 -0.61,-0.29 -0.48,-0.53 -0.09,-0.29 3.31,-1.36 0.05,0.34 v 0.73 l -0.28,0.63 -0.48,0.53 -0.33,0.14 h -0.09 v 0.05 z" /><path
       id="path186"
       style="fill:#fda2a9;fill-opacity:1;fill-rule:evenodd;stroke:none"
       d="m 156.63,262.2 -0.15,-8.04 4.32,0.96 z" /><path
       id="path188"
       style="fill:#fc6d78;fill-opacity:1;fill-rule:evenodd;stroke:none"
       d="m 151.54,252.6 -0.1,-0.5 0.1,-0.94 0.43,-0.79 0.67,-0.59 0.43,-0.2 0.1,-0.05 h 0.05 l 0.43,-0.05 0.81,0.2 0.68,0.44 0.48,0.7 0.14,0.44 z" /><path
       id="path190"
       style="fill:#fda2a9;fill-opacity:1;fill-rule:evenodd;stroke:none"
       d="m 151.44,251.76 0.05,-0.38 0.25,-0.65 0.44,-0.52 0.59,-0.42 0.3,-0.14 0.45,-0.05 h 0.44 l -0.05,0.42 -0.39,0.75 -0.6,0.61 -0.79,0.33 -0.49,0.05 z" /><path
       id="path192"
       style="fill:#fda2a9;fill-opacity:1;fill-rule:evenodd;stroke:none"
       d="m 142.56,249.48 0.34,-0.96 1.16,-1.59 0.72,-0.68 0.87,-0.62 2.55,-1.16 3.91,-1.35 0.77,-0.24 v 1.93 l -1.25,0.19 -3.04,0.77 -2.41,0.87 -1.4,0.72 -1.16,0.77 -0.87,0.87 z" /><path
       id="path194"
       style="fill:#f2f6f8;fill-opacity:1;fill-rule:evenodd;stroke:none"
       d="m 140,244.08 -0.58,-0.1 -0.57,-0.33 -0.48,-0.53 -0.25,-0.39 -1.34,-2.26 -0.72,-1.16 -0.1,-0.96 -0.24,-4.81 0.1,-2.94 0.24,-0.92 0.19,-0.33 0.72,-1.01 1.73,-1.88 4.14,-3.9 0.91,-0.77 -0.29,-0.87 -1.01,-4.43 -0.53,-2.89 -0.09,-0.96 v -0.48 l 0.34,-1.45 0.96,-2.74 1.68,-4.48 1.11,-3.32 0.48,-2.02 0.14,-0.87 0.19,1.73 0.73,8.96 0.14,4.62 -0.05,2.55 -0.14,1.01 -0.24,1.64 -0.68,3.42 -1.29,5.2 -2.12,6.5 -1.97,5.05 -0.82,1.55 v 4.52 z" /><path
       id="path196"
       style="fill:#30394b;fill-opacity:1;fill-rule:evenodd;stroke:none"
       d="m 143.46,197.04 -0.28,-0.05 -0.38,-0.2 -0.34,-0.3 -0.14,-0.45 v -0.3 -0.2 l 0.24,-0.4 0.33,-0.35 0.43,-0.15 h 0.43 l 0.42,0.2 0.29,0.35 0.14,0.4 v 0.3 0.25 l -0.19,0.4 -0.33,0.3 -0.43,0.2 z" /><path
       id="path198"
       style="fill:#30394b;fill-opacity:1;fill-rule:evenodd;stroke:none"
       d="m 136.69,196.68 -0.23,-0.05 -0.39,-0.14 -0.33,-0.33 -0.14,-0.43 v -0.24 l 0.05,-0.23 0.19,-0.38 0.28,-0.34 0.43,-0.14 h 0.47 l 0.39,0.24 0.33,0.28 0.14,0.43 v 0.24 l -0.05,0.24 -0.14,0.37 -0.33,0.29 -0.43,0.19 z" /><path
       id="path200"
       style="fill:#fecace;fill-opacity:1;fill-rule:evenodd;stroke:none"
       d="m 129.57,238.32 -1.44,-0.14 -1.3,-0.29 -1.16,-0.44 -1.05,-0.62 -1.01,-0.82 -1.45,-1.54 -1.06,-1.35 -1.01,-1.49 -3.46,-5.96 -6.35,-11.26 -2.84,-4.91 -15.535,8.33 -0.577,0.43 -0.962,0.87 -1.299,1.49 -1.298,2.11 -1.299,1.88 -0.722,0.82 -0.722,0.67 -1.539,1.06 -2.357,1.2 -1.588,1.11 -1.491,1.2 -1.395,0.87 -0.433,-0.1 -0.288,-0.34 -0.145,-0.24 -0.096,-0.29 0.048,-0.62 0.337,-1.06 1.395,-1.97 0.625,-0.72 0.578,-0.58 0.721,-0.82 v -0.29 l -0.337,-0.19 -0.673,-0.14 h -1.203 l -1.443,0.24 -2.405,0.77 -4.762,2.02 -1.732,0.77 -0.289,0.09 h -0.433 l -0.384,-0.29 -0.096,-0.77 0.24,-0.96 0.24,-0.48 0.289,-0.53 0.385,-1.49 0.337,-1.83 0.577,-1.73 0.433,-0.82 0.481,-0.72 0.914,-1.15 1.058,-0.92 1.588,-0.91 1.01,-0.48 1.154,-0.43 2.935,-0.73 3.271,-0.72 2.309,-0.77 1.299,-0.57 0.577,-0.29 1.299,-0.87 3.463,-2.79 6.302,-5.39 3.704,-3.22 1.014,-0.91 1.97,-1.5 1.83,-1.05 1.68,-0.72 1.54,-0.39 h 1.44 l 1.35,0.39 1.25,0.76 0.63,0.53 2.26,2.46 4.04,4.76 1.34,1.64 1.64,2.11 3.56,5.49 4.57,7.79 0.82,1.44 0.05,0.19 0.67,2.17 0.43,3.03 0.05,2.55 -0.19,3.03 -0.58,3.46 -0.53,1.88 z" /><path
       id="path202"
       style="fill:#f2f6f8;fill-opacity:1;fill-rule:evenodd;stroke:none"
       d="m 129.74,238.68 -2.02,-0.24 -1.72,-0.48 -1.45,-0.67 -1.29,-0.96 -1.15,-1.2 -1.69,-2.26 -1.2,-1.97 -7.58,-13.11 -4.23,-7.78 -12.247,6.43 -1.105,-2.4 -3.457,-7.44 3.506,-3.03 6.723,-5.81 1.25,-1.05 2.11,-1.3 1.44,-0.63 1.49,-0.33 1.54,-0.05 1.54,0.34 1.53,0.81 0.72,0.63 0.91,0.81 2.41,2.65 4.37,5.37 8.88,11.72 1.73,2.4 0.58,1.16 0.86,2.54 0.58,2.59 0.19,2.74 -0.05,2.69 -0.29,2.55 -0.52,2.4 -0.73,2.02 -0.43,0.86 z" /><path
       id="path204"
       style="fill:#e0e0e0;fill-opacity:1;fill-rule:evenodd;stroke:none"
       d="m 108.27,211.56 -0.87,-1.57 1.6,-1.76 1.99,-2.71 0.58,-1.34 0.2,-0.81 v -0.33 l 0.19,0.81 -0.24,1.43 -0.49,1.28 -0.77,1.72 -1.31,2.09 z" /><path
       id="path206"
       style="fill:#4d4d4d;fill-opacity:1;fill-rule:evenodd;stroke:none"
       d="m 254.95,110.28 -0.19,-0.61 v -1.23 l 0.1,-0.62 0.14,-0.23 0.67,-0.71 1.16,-0.8 1.73,-0.76 1.1,-0.24 1.2,-0.19 2.55,-0.04 3.7,0.19 1.68,0.14 h 1.82 l 5.62,-0.57 1.83,-0.23 1.06,-0.1 1.87,0.05 1.54,0.33 1.2,0.61 0.43,0.33 0.24,0.33 0.24,0.81 -0.05,0.37 -0.05,1 -0.24,0.99 z" /><path
       id="path208"
       style="fill:#fc6d78;fill-opacity:1;fill-rule:evenodd;stroke:none"
       d="m 277.44,117.72 -3.95,-0.05 -0.43,-0.19 -1.16,-0.96 -0.86,-0.57 -0.44,-0.19 -1.01,-0.2 -2.02,-0.28 -1.01,-0.05 -2.17,-0.15 -2.45,-0.14 -1.45,-0.05 -1.97,-0.19 -1.11,-0.29 -0.53,-0.28 -0.43,-0.29 -0.87,-0.77 -0.58,-1.1 -0.24,-1.48 0.1,-1.01 0.14,-0.43 0.53,-0.77 1.2,-0.81 0.97,-0.43 1.11,-0.43 2.31,-0.44 1.2,-0.09 1.49,-0.05 3.33,0.24 1.49,0.1 1.83,0.04 3.61,-0.24 1.78,-0.23 1.69,-0.29 2.21,-0.05 1.5,0.24 0.77,0.24 0.62,0.24 0.97,0.57 0.43,0.48 0.14,0.34 0.1,0.91 -0.14,1.87 -0.2,0.91 -0.05,0.38 -0.09,0.33 -0.1,0.44 -0.09,0.43 -0.15,0.67 -0.09,0.72 -0.1,0.71 -0.39,1.73 -0.33,0.57 -0.24,0.29 h -0.2 z" /><path
       id="path210"
       style="fill:#fafafa;fill-opacity:1;fill-rule:evenodd;stroke:none"
       d="m 259.99,115.44 -1.2,-0.19 -0.62,-0.2 -0.53,-0.14 -0.91,-0.44 -0.77,-0.53 -0.58,-0.68 -0.43,-0.72 -0.29,-0.78 -0.14,-0.87 0.14,-0.92 0.1,-0.48 0.05,-0.29 1.39,-1.45 1.44,-0.78 1.25,-0.38 0.81,-0.15 -0.14,0.77 v 2.13 l 0.29,1.84 0.48,1.21 0.67,1.16 1.01,1.02 0.67,0.48 h 0.48 l -0.62,0.2 -1.25,0.19 z" /><path
       id="path212"
       style="fill:#fafafa;fill-opacity:1;fill-rule:evenodd;stroke:none"
       d="m 269.63,115.68 -0.88,-0.15 -0.45,-0.14 -0.49,-0.78 -0.68,-1.66 -0.2,-0.88 -0.05,-0.3 0.39,-0.29 0.64,0.1 0.54,0.34 0.05,0.29 0.1,0.3 0.49,1.61 0.59,1.12 0.44,0.44 z" /><path
       id="path214"
       style="fill:#fafafa;fill-opacity:1;fill-rule:evenodd;stroke:none"
       d="m 266.45,115.44 -0.86,-0.1 -0.33,-0.19 -0.43,-0.43 -0.57,-0.97 -0.38,-1.4 v -0.24 -0.29 l 0.33,-0.29 0.53,-0.05 0.43,0.34 0.09,0.29 0.19,0.87 0.81,1.64 0.62,0.67 z" /><path
       id="path216"
       style="fill:#fecace;fill-opacity:1;fill-rule:evenodd;stroke:none"
       d="m 282.36,123.36 -8.88,-1.81 -0.24,-5.04 v -0.34 l 0.14,-0.47 0.48,-0.48 1.68,-0.38 h 2.79 l 1.73,0.29 1.1,0.57 0.62,0.66 0.1,0.38 0.38,4.1 z" /><path
       id="path218"
       style="fill:#4d4d4d;fill-opacity:1;fill-rule:evenodd;stroke:none"
       d="m 287.38,135.36 -0.1,-1.01 v -1.5 l 0.19,-1.06 0.15,-0.58 0.33,-0.82 0.87,-1.2 1.49,-1.35 0.86,-0.68 0.77,-0.82 1.45,-1.64 0.67,-0.91 0.62,-0.82 1.16,-1.5 0.96,-0.91 0.57,-0.44 1.25,-0.53 1.4,-0.19 1.34,0.19 0.68,0.24 0.43,0.2 0.67,0.43 0.39,0.63 0.19,1.01 -0.05,0.68 -0.05,0.38 -0.53,0.58 -1.44,0.72 -3.51,0.87 -0.81,0.1 z" /><path
       id="path220"
       style="fill:#fc6d78;fill-opacity:1;fill-rule:evenodd;stroke:none"
       d="m 290.77,137.64 -0.96,-0.05 -0.43,-0.14 -0.58,-0.24 -0.77,-0.63 -0.39,-0.96 v -1.25 l 0.19,-0.86 0.34,-1.25 0.92,-1.78 1.78,-1.83 1.4,-1.15 1.4,-1.49 2.02,-2.55 1.01,-1.3 0.49,-0.48 1.3,-0.67 1.59,-0.29 1.54,0.1 0.68,0.24 0.38,0.19 0.53,0.43 0.48,0.77 0.15,1.92 -0.15,1.16 -0.04,1.34 -0.24,1.2 -0.29,0.44 -0.15,0.14 -0.87,0.82 -2.7,3.36 -1.35,1.4 -0.77,0.57 -0.29,0.15 -1.54,0.62 -3.13,1.64 z" /><path
       id="path222"
       style="fill:#fafafa;fill-opacity:1;fill-rule:evenodd;stroke:none"
       d="m 295.85,135 -1.43,-0.48 -1.23,-0.82 -1,-1.05 -0.37,-0.67 -0.1,-0.24 0.14,-0.39 0.43,-0.19 0.43,0.05 0.28,0.14 0.24,0.43 0.57,0.72 0.99,0.87 1.38,0.62 1.23,0.34 0.43,0.05 -0.43,0.33 -0.47,0.24 -0.29,0.05 z" /><path
       id="path224"
       style="fill:#fafafa;fill-opacity:1;fill-rule:evenodd;stroke:none"
       d="m 298.39,133.8 -0.68,-0.14 -1.39,-0.44 -1.16,-0.81 -0.97,-1.06 -0.38,-0.57 -0.05,-0.24 0.19,-0.39 0.39,-0.19 0.48,0.05 0.19,0.14 0.39,0.58 0.87,0.91 1.01,0.77 1.21,0.53 0.67,0.14 -0.43,0.34 z" /><path
       id="path226"
       style="fill:#fecace;fill-opacity:1;fill-rule:evenodd;stroke:none"
       d="m 303.24,132.12 -7.08,-0.38 0.15,-1.77 0.29,-2.05 0.68,-0.29 1.32,-0.33 1.66,-0.1 2.39,0.62 0.35,0.29 z" /><path
       id="path228"
       style="fill:#fafafa;fill-opacity:1;fill-rule:evenodd;stroke:none"
       d="m 290.42,137.88 -1.15,-0.33 -1.01,-0.63 -0.43,-0.48 -0.14,-0.23 -0.24,-0.67 -0.05,-1.2 0.43,-1.72 0.67,-1.39 0.39,-0.43 0.05,0.14 0.33,1.25 0.82,1.29 0.91,0.86 1.3,0.72 1.82,0.48 1.06,0.14 0.38,-0.14 v 0 l -0.29,0.38 -0.67,0.67 -0.72,0.57 -0.86,0.43 -0.44,0.1 -0.76,0.19 z" /><path
       id="path230"
       style="fill:#30394b;fill-opacity:1;fill-rule:evenodd;stroke:none"
       d="m 286.39,217.2 -2.94,-0.1 -2.8,-0.29 -2.56,-0.52 -2.26,-0.77 -1.83,-1.11 -1.06,-1.01 -0.53,-0.77 -0.39,-0.92 -0.19,-0.96 -0.05,-0.58 -0.29,-11.55 -0.24,-19.97 -0.24,-11.11 -0.19,-3.85 -0.1,-1.88 0.05,-3.75 0.34,-6.79 0.24,-6.69 0.24,-18.24 -0.05,-10.05 0.34,-0.39 0.72,-0.72 1.3,-0.77 1.88,-0.53 h 1.98 l 2.74,0.39 2.46,0.77 0.24,0.14 1.26,14.1 1.64,19.97 0.14,2.26 -0.05,3.52 -0.29,3.27 -0.05,0.38 3.23,29.26 0.15,-4.72 0.38,-9.72 0.15,-1.82 0.34,-3.52 0.96,-6.01 0.92,-6.26 2.31,-18.67 1.25,-10.49 0.77,-0.39 1.6,-0.52 1.44,-0.15 1.3,0.05 1.69,0.38 1.35,0.58 0.14,0.05 0.29,3.18 0.92,15.88 0.24,7.74 -0.1,4.09 -0.14,1.5 -1.06,9.04 -0.15,2.02 v 1.26 7.79 l 0.24,6.69 0.15,3.46 0.38,6.36 0.15,6.3 0.05,1.69 -0.1,3.41 -0.29,3.32 -0.43,3.37 -0.29,1.69 -1.01,0.14 -6.27,0.91 -5.59,0.53 z" /><path
       id="path232"
       style="fill:#4d4d4d;fill-opacity:1;fill-rule:evenodd;stroke:none"
       d="m 300.72,199.44 -1.68,-1.3 -3.89,-2.35 -5.23,-2.69 -0.96,-0.38 0.58,-17.76 1.05,8.5 1.11,8.78 0.96,0.43 1.77,1.01 2.4,1.78 3.36,3.36 z" /><path
       id="path234"
       style="fill:#fecace;fill-opacity:1;fill-rule:evenodd;stroke:none"
       d="m 301.22,256.44 -0.57,-0.1 3.69,-19.38 4.41,-9.2 -8.15,-6.75 1.49,-4.34 1.43,-4.39 1.83,1.3 7.67,6.03 2.92,2.55 2.3,2.41 1.1,1.55 0.29,0.91 0.05,0.34 -0.05,0.77 -0.62,2.12 -1.68,4.24 -4.6,9.89 -2.4,4.87 -0.48,1.01 -1.05,1.73 -1.15,1.45 -1.25,1.21 -1.25,0.86 -1.29,0.58 -1.34,0.34 z" /><path
       id="path236"
       style="fill:#005e7d;fill-opacity:1;fill-rule:evenodd;stroke:none"
       d="m 299.96,257.16 -1.16,-0.1 5.01,-20.65 4.24,-7.45 1.3,0.14 2.27,0.58 1.83,0.87 1.49,1 1.59,1.54 1.01,1.54 0.1,0.19 -2.41,5.33 -3.23,6.78 -2.12,4.08 -1.06,1.87 -0.38,0.63 -1.02,1.06 -1.2,0.86 -1.4,0.72 -2.12,0.67 z" /><path
       id="path238"
       style="fill:#fecace;fill-opacity:1;fill-rule:evenodd;stroke:none"
       d="m 295.1,263.88 -10.58,-2.31 0.48,-10.53 10.44,0.58 z" /><path
       id="path240"
       style="fill:#005e7d;fill-opacity:1;fill-rule:evenodd;stroke:none"
       d="m 295.22,257.16 -0.1,-0.29 -0.62,-0.58 -0.97,-0.43 -1.25,-0.34 -2.31,-0.19 -3.51,0.19 -1.74,0.29 -4.33,-1.06 -4.09,-1.11 -0.62,-0.19 -1.06,-0.67 -0.87,-0.97 -0.67,-1.34 -0.58,-1.74 -0.43,-2.26 -0.49,-4.38 -0.14,-3.81 V 227.5 206.55 l 1.11,-0.58 2.45,-0.86 2.65,-0.58 2.79,-0.34 4.28,-0.19 5.59,0.24 2.5,0.24 1.83,0.19 3.03,0.63 2.36,0.72 1.73,0.82 1.74,1.16 0.91,1.06 0.05,0.09 -0.24,4.05 0.09,6.16 0.15,3.95 0.05,1.68 0.43,3.42 0.91,5.3 0.39,3.76 0.19,2.74 0.05,4.62 -0.24,3.61 -0.43,2.56 -0.2,0.81 -0.19,0.53 -0.48,1.02 -0.77,0.96 -0.82,0.87 -1.06,0.72 -1.1,0.58 -1.26,0.43 -1.34,0.24 z" /><path
       id="path242"
       style="fill:#005e7d;fill-opacity:1;fill-rule:evenodd;stroke:none"
       d="m 282.41,259.56 -0.96,-0.14 -0.95,-0.29 -0.91,-0.53 -0.86,-0.78 -0.72,-0.86 -0.67,-1.21 -0.48,-1.3 -0.14,-0.77 1.91,0.53 4.21,5.35 z" /><path
       id="path244"
       style="fill:#337e92;fill-opacity:1;fill-rule:evenodd;stroke:none"
       d="m 282.41,259.56 -0.96,-0.14 -0.95,-0.29 -0.91,-0.53 -0.86,-0.78 -0.72,-0.86 -0.67,-1.21 -0.48,-1.3 -0.14,-0.77 1.91,0.53 4.21,5.35 z" /><path
       id="path246"
       style="fill:#005e7d;fill-opacity:1;fill-rule:evenodd;stroke:none"
       d="m 295.16,260.88 v -0.87 -0.1 l -0.39,-0.58 -0.72,-0.43 -0.63,-0.19 -0.72,-0.2 -2.31,-0.24 h -2.7 l -2.31,0.24 -0.77,0.2 -0.05,1.45 -0.82,-0.15 -1.44,-0.72 -0.58,-0.53 -0.58,-0.54 -1.1,-1.49 -1.21,-2.13 -0.19,-0.38 1.11,-1.6 0.53,-0.62 1.78,-1.36 2.07,-0.96 1.64,-0.48 1.92,-0.39 2.17,-0.29 h 2.41 l 2.16,0.29 1.88,0.63 1.54,0.82 1.21,0.92 1.01,0.96 0.58,0.92 0.38,0.82 0.05,0.29 -0.1,0.67 -0.57,1.65 -0.92,1.69 -1.01,1.4 -0.43,0.43 -0.68,0.39 -1.44,0.48 z" /><path
       id="path248"
       style="fill:#337e92;fill-opacity:1;fill-rule:evenodd;stroke:none"
       d="m 295.16,260.88 v -0.87 -0.1 l -0.39,-0.58 -0.72,-0.43 -0.63,-0.19 -0.72,-0.2 -2.31,-0.24 h -2.7 l -2.31,0.24 -0.77,0.2 -0.05,1.45 -0.82,-0.15 -1.44,-0.72 -0.58,-0.53 -0.58,-0.54 -1.1,-1.49 -1.21,-2.13 -0.19,-0.38 1.11,-1.6 0.53,-0.62 1.78,-1.36 2.07,-0.96 1.64,-0.48 1.92,-0.39 2.17,-0.29 h 2.41 l 2.16,0.29 1.88,0.63 1.54,0.82 1.21,0.92 1.01,0.96 0.58,0.92 0.38,0.82 0.05,0.29 -0.1,0.67 -0.57,1.65 -0.92,1.69 -1.01,1.4 -0.43,0.43 -0.68,0.39 -1.44,0.48 z" /><path
       id="path250"
       style="fill:#fda2a9;fill-opacity:1;fill-rule:evenodd;stroke:none"
       d="m 277.44,274.44 -0.28,-0.48 -1.32,-2.18 -0.56,-1.19 v -0.24 l 0.42,-0.28 1.41,-0.38 0.28,-0.05 z" /><path
       id="path252"
       style="fill:#fecace;fill-opacity:1;fill-rule:evenodd;stroke:none"
       d="m 288.13,285.36 -2.84,-0.29 -0.96,-0.19 -0.87,-0.24 -1.64,-0.43 -1.34,-0.63 -1.11,-0.86 -0.87,-1.2 -0.67,-1.58 -0.44,-2.02 -0.29,-2.59 -0.09,-1.54 -0.05,-2.97 0.19,-4.32 0.53,-2.84 0.77,-1.63 0.39,-0.48 0.43,-0.24 1.54,-0.33 2.07,-0.1 2.07,0.14 0.82,0.24 1.11,0.29 2.89,1.06 2.36,1.25 1.59,1.05 1.49,1.15 1.25,1.4 0.58,0.72 0.58,0.96 1.01,1.96 0.72,2.07 0.43,2.06 0.1,1.97 -0.19,1.82 -0.53,1.64 -0.92,1.39 -0.62,0.53 -0.92,0.67 -1.92,1.01 -1.98,0.67 -1.92,0.33 z" /><path
       id="path254"
       style="fill:#fda2a9;fill-opacity:1;fill-rule:evenodd;stroke:none"
       d="m 284.47,262.2 -1.34,-0.42 -2.82,-0.33 -1.43,0.09 0.29,-0.19 1.19,-0.33 1.58,-0.14 1.72,0.05 0.86,0.09 z" /><path
       id="path256"
       style="fill:#263238;fill-opacity:1;fill-rule:evenodd;stroke:none"
       d="m 292.15,289.8 -2.36,-0.24 -3.18,-0.62 -2.35,-0.24 -1.59,0.09 -0.82,0.15 -1.06,0.28 -1.06,0.29 -0.38,0.15 -0.44,-0.1 -0.24,-0.19 -0.19,-0.48 v -0.29 l 0.05,-0.34 0.29,-0.62 0.62,-0.86 0.39,-0.39 -0.72,-0.05 -1.45,0.1 -0.67,0.14 -0.48,0.05 -0.48,-0.05 -0.24,-0.14 -0.44,-0.38 -0.29,-0.44 -0.14,-0.57 v -0.29 -0.43 l 0.19,-0.87 0.39,-0.81 0.48,-0.72 0.34,-0.34 0.48,-0.29 1.01,-0.43 1.15,-0.29 1.11,-0.04 0.58,0.04 v -0.48 l 0.29,-0.96 0.24,-0.43 0.38,-0.57 1.16,-0.82 0.62,-0.19 -0.38,-0.87 -0.39,-1.72 -0.09,-0.87 v -0.29 l 0.09,-0.57 0.15,-0.29 0.14,-0.19 0.53,-0.19 0.29,0.09 0.19,0.15 0.15,0.14 0.43,0.96 0.62,0.86 0.44,0.48 1.1,0.58 0.58,0.14 h 0.58 l 0.96,-0.19 0.67,-0.57 0.49,-0.77 0.24,-0.91 0.04,-0.96 -0.09,-0.92 -0.34,-0.81 -0.24,-0.34 -0.38,-0.48 -0.73,-0.67 -0.67,-0.29 -0.62,-0.09 -1.21,0.38 -0.19,0.24 -0.05,-1.01 0.29,-1.92 0.72,-1.82 1.06,-1.63 0.67,-0.77 0.82,-0.19 1.73,-0.29 1.74,-0.05 1.73,0.19 0.87,0.19 2.02,2.64 2.21,3.12 1.25,2.07 0.58,1.2 0.58,1.34 0.77,2.35 0.38,2.16 0.05,1.88 -0.19,1.68 -0.44,1.44 -0.72,1.15 -0.77,0.96 -0.43,0.33 -0.1,0.58 -0.43,1.06 -0.48,0.96 -0.68,0.72 -1.25,0.96 -1.97,0.81 -1.11,0.24 -0.77,0.19 z" /><path
       id="path258"
       style="fill:#263238;fill-opacity:1;fill-rule:evenodd;stroke:none"
       d="m 302.24,285.84 -0.69,-0.1 -0.35,-0.19 -0.3,-0.19 -0.39,-0.53 -0.15,-0.67 0.1,-0.67 0.15,-0.29 3.11,1.78 -0.25,0.28 -0.54,0.39 z" /><path
       id="path260"
       style="fill:#fecace;fill-opacity:1;fill-rule:evenodd;stroke:none"
       d="m 258.17,268.92 -0.34,-0.1 -0.62,-0.33 -0.67,-0.29 -0.63,-0.1 -0.53,-0.14 -0.67,-0.15 -1.34,-0.48 -0.63,-0.38 -0.52,-0.29 -0.77,-0.77 -0.58,-0.97 -0.43,-1.01 -0.14,-0.58 -0.29,-1.44 -0.29,-3.03 0.1,-1.45 0.24,-1.97 0.24,-1.98 0.57,-4.33 0.24,-3.61 0.29,-9.82 0.24,-5.4 0.19,-1.44 0.19,-1.06 0.58,-1.78 0.91,-1.45 1.25,-1.1 0.82,-0.39 0.62,-0.24 1.44,0.14 1.49,0.68 1.58,1.06 2.4,2.02 2.88,2.94 1.25,1.25 -5.76,4.91 -1.01,4 -0.96,4.04 -0.53,1.93 -0.48,2.98 0.05,1.98 0.24,1.01 0.43,0.82 0.87,1.54 0.53,0.72 0.91,1.54 0.62,1.69 0.34,0.81 0.29,0.82 0.19,0.39 0.19,0.62 -0.05,0.39 -0.09,0.29 -0.29,0.29 h -0.63 l -1,-0.68 -0.87,-0.86 -0.19,-0.29 -0.34,-0.53 -0.38,-0.48 -0.24,-0.29 -0.58,-0.2 -0.38,0.05 -0.1,0.15 -0.14,0.29 -0.05,0.33 -0.05,0.97 0.2,1.87 0.76,2.8 0.58,1.83 0.19,0.48 0.05,0.53 v 0.29 l -0.19,0.43 -0.15,0.24 -0.33,0.19 z" /><path
       id="path262"
       style="fill:#fda2a9;fill-opacity:1;fill-rule:evenodd;stroke:none"
       d="m 260.28,239.64 -1.02,-0.82 -1.66,-1.65 -1.16,-1.56 -0.78,-1.5 -0.63,-1.89 -0.15,-1.55 0.05,-0.15 0.24,1.02 1.12,1.99 1.51,1.74 1.7,1.6 0.78,0.59 z" /><path
       id="path264"
       style="fill:#005e7d;fill-opacity:1;fill-rule:evenodd;stroke:none"
       d="m 276.2,253.56 -0.77,-0.1 -2.03,-0.28 -2.27,-0.77 -1.89,-1.11 -1.25,-1.05 -0.68,-0.67 -1.55,-1.73 -3.38,-4.23 -4.45,-5.76 -0.77,-1.05 0.05,-0.19 0.53,-2.02 1.06,-2.21 1.12,-1.53 1.45,-1.49 1.98,-1.25 1.21,-0.48 1.16,1.15 5.8,5.95 2.75,3.17 1.35,1.83 0.44,0.81 0.39,0.72 0.58,1.63 0.43,1.83 0.29,1.82 0.05,1.83 -0.15,1.72 -0.38,1.59 -0.63,1.29 z" /><path
       id="path266"
       style="fill:#fc6d78;fill-opacity:1;fill-rule:evenodd;stroke:none"
       d="m 263.52,277.44 3.43,-3.02 -2.8,-1.4 6.33,-2.73 -1.59,-1.54 4.59,-0.91 -2.61,1.39 1.5,1.3 -5.42,2.49 2.37,1.35 z" /><path
       id="path268"
       style="fill:#fc6d78;fill-opacity:1;fill-rule:evenodd;stroke:none"
       d="m 273.47,278.04 0.48,-2.28 -1.43,-0.49 1.47,-1.74 -0.9,-0.68 1.66,-1.65 -0.8,1.46 1.09,0.72 -1.57,1.8 0.95,0.43 z" /><path
       id="path270"
       style="fill:#fc6d78;fill-opacity:1;fill-rule:evenodd;stroke:none"
       d="m 266.21,266.52 -4.97,-2.45 4.3,1.13 1.11,-2.2 2.85,1.56 1.15,-1.76 3.19,2.55 -2.9,-1.28 -1.01,1.72 -2.32,-1.33 z" /><path
       id="path272"
       style="fill:#e4ecf1;fill-opacity:1;fill-rule:evenodd;stroke:none"
       d="m 251.81,221.04 -0.14,-0.09 -0.15,-0.15 v -0.37 l 0.1,-0.14 0.58,-0.62 1.42,-0.85 1.57,-0.42 h 1.71 l 0.83,0.19 h 0.05 l 0.14,0.09 0.2,0.33 -0.05,0.19 -0.1,0.19 -0.34,0.14 -0.19,-0.05 -0.69,-0.18 h -1.42 l -1.32,0.37 -1.17,0.71 -0.49,0.47 -0.15,0.14 z" /><path
       id="path274"
       style="fill:#e4ecf1;fill-opacity:1;fill-rule:evenodd;stroke:none"
       d="m 252.25,217.92 -0.15,-0.1 v -0.04 l -0.1,-0.14 v -0.38 l 0.15,-0.15 0.49,-0.28 1.03,-0.47 1.07,-0.24 h 1.13 l 0.54,0.14 h 0.05 l 0.19,0.05 0.15,0.28 v 0.19 l -0.05,0.19 -0.29,0.19 h -0.25 l -0.44,-0.09 -0.88,-0.05 -0.88,0.19 -0.88,0.33 -0.4,0.28 -0.14,0.1 z" /><path
       id="path276"
       style="fill:#e4ecf1;fill-opacity:1;fill-rule:evenodd;stroke:none"
       d="m 305.95,258 -0.19,-0.05 -0.24,-0.24 v -0.24 -0.2 l 0.29,-0.24 h 0.91 l 1.33,-0.34 1.2,-0.63 0.91,-1.02 0.38,-0.59 0.14,-0.19 0.29,-0.1 0.19,0.05 0.14,0.1 0.1,0.39 -0.05,0.19 -0.38,0.73 -1.15,1.21 -1.43,0.78 -1.63,0.39 z" /><path
       id="path278"
       style="fill:#e4ecf1;fill-opacity:1;fill-rule:evenodd;stroke:none"
       d="m 307.61,260.04 -0.24,-0.29 -0.05,-0.15 0.05,-0.24 0.24,-0.25 0.19,-0.05 0.43,-0.05 0.86,-0.14 0.81,-0.39 0.71,-0.54 0.29,-0.34 0.14,-0.15 0.29,-0.05 0.14,0.05 0.1,0.05 0.09,0.14 0.1,0.35 -0.1,0.14 -0.33,0.44 -0.91,0.69 -0.95,0.49 -1.1,0.24 -0.52,0.05 z" /><path
       id="path280"
       style="fill:#e4ecf1;fill-opacity:1;fill-rule:evenodd;stroke:none"
       d="m 322.82,228.6 -0.19,-0.05 -0.24,-0.29 v -0.19 -0.68 l -0.24,-1.36 -0.62,-1.27 -0.87,-0.97 -0.57,-0.39 -0.19,-0.14 -0.1,-0.34 0.05,-0.2 h 0.05 l 0.09,-0.19 0.34,-0.05 0.19,0.05 0.67,0.48 1.15,1.27 0.72,1.45 0.34,1.61 -0.05,0.87 -0.09,0.15 -0.29,0.24 z" /><path
       id="path282"
       style="fill:#e4ecf1;fill-opacity:1;fill-rule:evenodd;stroke:none"
       d="m 324.78,226.92 -0.23,-0.29 -0.05,-0.14 v -0.43 l -0.14,-0.91 -0.33,-0.81 -0.47,-0.71 -0.33,-0.34 -0.1,-0.09 -0.09,-0.34 0.09,-0.14 v -0.1 l 0.19,-0.14 h 0.33 l 0.14,0.1 0.43,0.33 0.61,0.91 0.42,1.05 0.19,1.05 v 0.57 0.14 l -0.28,0.29 z" /><path
       id="path284"
       style="fill:#e4ecf1;fill-opacity:1;fill-rule:evenodd;stroke:none"
       d="m 267.61,165.6 -0.33,-0.14 -0.09,-0.15 -0.32,-0.81 -0.23,-1.63 0.23,-1.57 0.64,-1.53 0.51,-0.63 0.14,-0.14 h 0.32 l 0.14,0.05 0.13,0.19 0.05,0.38 -0.09,0.1 -0.42,0.57 -0.55,1.25 -0.18,1.33 0.18,1.34 0.28,0.67 v 0.15 l -0.09,0.38 -0.14,0.09 z" /><path
       id="path286"
       style="fill:#e4ecf1;fill-opacity:1;fill-rule:evenodd;stroke:none"
       d="m 264.83,163.8 -0.34,-0.14 -0.1,-0.19 -0.1,-0.57 -0.05,-1.09 0.3,-1.04 0.44,-0.99 0.29,-0.47 0.15,-0.14 0.4,-0.05 0.19,0.09 0.1,0.15 0.05,0.33 -0.05,0.14 -0.25,0.38 -0.44,0.8 -0.15,0.85 v 0.9 l 0.05,0.42 0.05,0.19 -0.14,0.29 -0.15,0.09 h -0.1 z" /><path
       id="path288"
       style="fill:#005e7d;fill-opacity:1;fill-rule:evenodd;stroke:none"
       d="m 227.49,334.44 -0.82,-0.19 -0.33,-0.19 -30.47,-17.56 -0.34,-0.28 -0.58,-0.58 -0.43,-0.72 -0.19,-0.82 -0.05,-0.43 v -15.73 l 0.05,-0.43 0.19,-0.82 0.43,-0.67 0.58,-0.63 0.34,-0.24 1.34,-0.77 0.39,-0.19 0.77,-0.19 h 0.86 l 0.82,0.19 0.33,0.19 30.43,17.6 0.38,0.24 0.58,0.58 0.38,0.72 0.24,0.82 0.05,0.43 v 15.73 l -0.05,0.43 -0.24,0.82 -0.38,0.72 -0.58,0.62 -0.38,0.2 -1.3,0.77 -0.39,0.19 -0.77,0.19 z" /><path
       id="path290"
       style="fill:#337e92;fill-opacity:1;fill-rule:evenodd;stroke:none"
       d="m 227.49,334.44 -0.82,-0.19 -0.33,-0.19 -30.47,-17.56 -0.34,-0.28 -0.58,-0.58 -0.43,-0.72 -0.19,-0.82 -0.05,-0.43 v -15.73 l 0.05,-0.43 0.19,-0.82 0.43,-0.67 0.58,-0.63 0.34,-0.24 1.34,-0.77 0.39,-0.19 0.77,-0.19 h 0.86 l 0.82,0.19 0.33,0.19 30.43,17.6 0.38,0.24 0.58,0.58 0.38,0.72 0.24,0.82 0.05,0.43 v 15.73 l -0.05,0.43 -0.24,0.82 -0.38,0.72 -0.58,0.62 -0.38,0.2 -1.3,0.77 -0.39,0.19 -0.77,0.19 z" /><path
       id="path292"
       style="fill:#005e7d;fill-opacity:1;fill-rule:evenodd;stroke:none"
       d="m 200.16,294.24 -0.3,-0.09 v 0 l 0.01,-0.01 z m -5.4,21 -0.24,-0.34 -0.24,-0.81 v -0.44 -15.71 l 0.05,-0.43 0.19,-0.82 0.44,-0.67 0.57,-0.63 0.34,-0.24 1.35,-0.77 0.67,-0.28 1.5,-0.1 0.47,0.15 v 0 l -0.47,0.04 -0.39,0.29 -0.19,0.53 v 0.29 15.71 0.43 l 0.29,0.82 0.19,0.38 z" /><path
       id="path294"
       style="fill:#005e7d;fill-opacity:1;fill-rule:evenodd;stroke:none"
       d="m 227.53,334.44 -0.82,-0.19 -0.38,-0.19 -30.46,-17.5 -0.34,-0.29 -0.58,-0.58 -0.19,-0.38 4.52,-2.59 0.24,0.38 0.58,0.58 0.29,0.24 30.46,17.55 0.29,0.14 0.53,0.05 0.38,-0.14 0.29,-0.29 0.1,-0.24 -0.19,0.67 -0.77,1.2 -0.63,0.43 -1.3,0.77 -0.38,0.19 -0.77,0.19 z" /><path
       id="path296"
       style="fill:#005e7d;fill-opacity:1;fill-rule:evenodd;stroke:none"
       d="m 194.2,308.64 -5.49,-5.27 -0.19,-0.24 v -0.59 l 0.19,-0.29 0.05,-0.04 0.1,-0.05 4.47,-2.61 0.29,-0.15 h 0.29 l 4.81,0.92 v 5.71 z" /><path
       id="path298"
       style="fill:#337e92;fill-opacity:1;fill-rule:evenodd;stroke:none"
       d="m 194.2,308.64 -5.49,-5.27 -0.19,-0.24 v -0.59 l 0.19,-0.29 0.05,-0.04 0.1,-0.05 4.47,-2.61 0.29,-0.15 h 0.29 l 4.81,0.92 v 5.71 z" /><path
       id="path300"
       style="fill:#005e7d;fill-opacity:1;fill-rule:evenodd;stroke:none"
       d="m 194.22,308.64 -5.46,-5.29 -0.1,-0.09 v -0.05 l -0.14,-0.29 0.14,-0.59 0.24,-0.19 0.34,-0.24 0.14,-0.05 1.3,-0.78 0.28,-0.14 2.28,-1.34 -0.03,0.03 -0.19,0.29 0.05,0.58 0.19,0.24 5.46,5.29 z m -0.98,-9.05 0.02,-0.02 0.1,-0.05 z" /><path
       id="path302"
       style="fill:#ffffff;fill-opacity:1;fill-rule:evenodd;stroke:none"
       d="m 208.92,311.16 -0.77,-0.1 -0.43,-0.23 -0.48,-0.34 -0.77,-0.76 -0.53,-0.95 -0.33,-1.05 -0.05,-0.57 0.05,-0.52 0.29,-0.67 0.62,-0.33 0.77,0.05 0.43,0.24 0.48,0.33 0.72,0.81 0.58,0.95 0.28,1.05 0.1,0.57 -0.05,0.47 -0.33,0.67 z" /><path
       id="path304"
       style="fill:#ffffff;fill-opacity:1;fill-rule:evenodd;stroke:none"
       d="m 216.83,315.72 -0.73,-0.05 -0.48,-0.24 -0.44,-0.33 -0.83,-0.82 -0.53,-0.91 -0.34,-1.11 v -0.57 -0.48 l 0.34,-0.72 0.58,-0.29 0.78,0.05 0.44,0.24 0.48,0.29 0.73,0.86 0.58,0.91 0.34,1.11 0.05,0.52 -0.05,0.48 -0.34,0.72 z" /><path
       id="path306"
       style="fill:#ffffff;fill-opacity:1;fill-rule:evenodd;stroke:none"
       d="m 224.75,320.28 -0.73,-0.05 -0.44,-0.24 -0.48,-0.29 -0.78,-0.81 -0.58,-0.96 -0.34,-1.11 v -0.52 -0.48 l 0.34,-0.72 0.58,-0.34 0.78,0.05 0.48,0.24 0.44,0.33 0.78,0.82 0.53,0.96 0.34,1.06 0.05,0.57 v 0.48 l -0.39,0.72 z" /><path
       id="path308"
       style="fill:#005e7d;fill-opacity:1;fill-rule:evenodd;stroke:none"
       d="m 290.68,311.88 -5.44,-3.07 v -3.12 l 2.33,-3.99 0.1,-0.04 0.05,-0.1 3.4,-1.92 -2.24,4.08 1.8,5.09 z" /><path
       id="path310"
       style="fill:#337e92;fill-opacity:1;fill-rule:evenodd;stroke:none"
       d="m 290.68,311.88 -5.44,-3.07 v -3.12 l 2.33,-3.99 0.1,-0.04 0.05,-0.1 3.4,-1.92 -2.24,4.08 1.8,5.09 z" /><path
       id="path312"
       style="fill:#005e7d;fill-opacity:1;fill-rule:evenodd;stroke:none"
       d="m 302.38,336.12 -0.77,-0.19 -0.43,-0.15 -30.27,-17.61 -0.38,-0.24 -0.53,-0.62 -0.43,-0.68 -0.24,-0.81 -0.05,-0.39 V 299.7 l 0.05,-0.44 0.24,-0.81 0.43,-0.73 0.53,-0.57 0.38,-0.24 1.3,-0.77 0.38,-0.2 0.82,-0.14 h 0.81 l 0.82,0.14 0.38,0.2 13.19,7.7 2.3,-4 0.1,-0.09 0.24,-0.05 0.14,0.05 0.1,0.04 0.05,0.1 2.44,7.02 11.71,6.79 0.38,0.24 0.53,0.62 0.43,0.73 0.24,0.77 0.05,0.43 v 15.68 l -0.05,0.44 -0.19,0.82 -0.43,0.72 -0.58,0.62 -0.33,0.24 -1.3,0.77 -0.38,0.15 -0.87,0.19 z" /><path
       id="path314"
       style="fill:#ffffff;fill-opacity:1;fill-rule:evenodd;stroke:none"
       d="m 302.9,326.52 -0.24,-0.14 -24.28,-14.04 -0.53,-0.38 -0.72,-1.11 -0.05,-0.62 v -0.29 l 0.19,-0.44 0.34,-0.14 h 0.48 l 0.29,0.14 24.28,14.04 0.53,0.38 0.63,1.16 0.14,0.62 v 0.29 l -0.24,0.39 -0.34,0.14 z" /><path
       id="path316"
       style="fill:#ffffff;fill-opacity:1;fill-rule:evenodd;stroke:none"
       d="m 303.38,320.28 -0.48,-0.05 -0.24,-0.14 -24.28,-14 -0.53,-0.38 -0.72,-1.1 -0.05,-0.67 v -0.24 l 0.19,-0.39 0.34,-0.19 0.48,0.05 0.29,0.14 24.28,13.95 0.53,0.43 0.63,1.06 0.14,0.67 v 0.28 l -0.24,0.39 z" /><path
       id="path318"
       style="fill:#337e92;fill-opacity:1;fill-rule:evenodd;stroke:none"
       d="m 269.75,317.04 -0.19,-0.39 -0.23,-0.81 -0.05,-0.39 V 299.7 l 0.05,-0.43 0.23,-0.82 0.43,-0.72 0.52,-0.58 0.38,-0.24 1.27,-0.77 0.71,-0.29 1.46,-0.05 0.71,0.19 -0.28,-0.05 h -0.43 l -0.38,0.29 -0.18,0.53 v 0.34 15.7 0.44 l 0.23,0.77 0.19,0.38 z" /><path
       id="path320"
       style="fill:#337e97;fill-opacity:1;fill-rule:evenodd;stroke:none"
       d="m 307.25,332.91 0.07,-0.27 -0.05,0.24 z m -4.83,3.21 -0.77,-0.19 -0.43,-0.15 -30.31,-17.68 -0.38,-0.2 -0.53,-0.62 -0.24,-0.34 4.51,-2.66 0.24,0.34 0.58,0.63 0.34,0.24 30.35,17.63 0.24,0.15 0.53,0.1 0.43,-0.15 0.27,-0.31 -0.12,0.46 -0.77,1.2 -0.58,0.44 -1.34,0.77 -0.34,0.15 -0.86,0.19 z" /><path
       id="path322"
       style="fill:#353535;fill-opacity:1;fill-rule:evenodd;stroke:none"
       d="m 139.05,221.59 c 0.71,0 1.86,-1.34 2.95,-3.03 0.24,-0.33 0.43,-0.67 0.62,-1.05 0.48,-0.77 0.86,-1.59 1.2,-2.4 0.33,-0.82 0.38,-2.65 0.23,-4.81 -0.09,-1.2 -0.23,-2.45 -0.38,-3.7 -0.47,-3.26 -1.09,-6.29 -1.57,-7.06 l -0.05,-0.05 c -0.52,-0.81 -1.24,-1.54 -2,-2.11 -0.86,0.53 -1.58,1.2 -2.2,1.92 -0.81,1.06 -2.24,6.39 -2.86,10.62 -0.33,2.11 -0.47,3.94 -0.19,4.8 0.48,1.49 1.15,2.98 1.91,4.37 0.81,1.4 1.72,2.45 2.34,2.5 z m -0.05,0.77 c -0.19,0 -0.34,-0.05 -0.53,-0.14 -0.85,-0.39 -1.76,-1.59 -2.52,-2.94 -0.77,-1.39 -1.39,-2.83 -1.86,-4.32 -0.29,-0.96 -0.19,-2.93 0.14,-5.19 0.67,-4.37 2.15,-9.85 3,-10.95 0.62,-0.72 1.34,-1.39 2.1,-1.92 -0.47,-0.34 -1,-0.63 -1.57,-0.82 -0.29,-0.1 -0.62,-0.14 -0.96,-0.14 v -0.82 h 0.1 c 0.33,0 0.67,0.1 1.05,0.19 0.76,0.24 1.48,0.63 2.15,1.11 0.71,-0.44 1.47,-0.72 2.28,-0.92 0.28,-0.07 0.56,-0.11 0.84,-0.11 0.1,0 0.21,0.01 0.31,0.02 l -0.1,0.81 c -0.09,-0.01 -0.19,-0.01 -0.29,-0.01 -0.24,0 -0.47,0.03 -0.71,0.06 -0.57,0.15 -1.09,0.39 -1.62,0.68 0.76,0.62 1.43,1.29 1.96,2.11 0.47,0.72 1.05,3.17 1.47,6 0.24,1.69 0.48,3.51 0.58,5.15 0.14,2.3 0.09,4.32 -0.29,5.18 -0.48,1.11 -1,2.21 -1.62,3.22 -1,1.64 -2.24,3.22 -3.34,3.65 -0.14,0.05 -0.33,0.1 -0.52,0.1 z" /><path
       id="path324"
       style="fill:#353535;fill-opacity:1;fill-rule:evenodd;stroke:none"
       d="m 139.05,221.59 c 0.71,0 1.86,-1.34 2.95,-3.03 0.24,-0.33 0.43,-0.67 0.62,-1.05 0.48,-0.77 0.86,-1.59 1.2,-2.4 0.33,-0.82 0.38,-2.65 0.23,-4.81 -0.09,-1.2 -0.23,-2.45 -0.38,-3.7 -0.47,-3.26 -1.09,-6.29 -1.57,-7.06 l -0.05,-0.05 c -0.52,-0.81 -1.24,-1.54 -2,-2.11 -0.86,0.53 -1.58,1.2 -2.2,1.92 -0.81,1.06 -2.24,6.39 -2.86,10.62 -0.33,2.11 -0.47,3.94 -0.19,4.8 0.48,1.49 1.15,2.98 1.91,4.37 0.81,1.4 1.72,2.45 2.34,2.5 z m -0.05,0.77 c -0.19,0 -0.34,-0.05 -0.53,-0.14 -0.85,-0.39 -1.76,-1.59 -2.52,-2.94 -0.77,-1.39 -1.39,-2.83 -1.86,-4.32 -0.29,-0.96 -0.19,-2.93 0.14,-5.19 0.67,-4.37 2.15,-9.85 3,-10.95 0.62,-0.72 1.34,-1.39 2.1,-1.92 -0.47,-0.34 -1,-0.63 -1.57,-0.82 -0.29,-0.1 -0.62,-0.14 -0.96,-0.14 v -0.82 h 0.1 c 0.33,0 0.67,0.1 1.05,0.19 0.76,0.24 1.48,0.63 2.15,1.11 0.71,-0.44 1.47,-0.72 2.28,-0.92 0.28,-0.07 0.56,-0.11 0.84,-0.11 0.1,0 0.21,0.01 0.31,0.02 l -0.1,0.81 c -0.09,-0.01 -0.19,-0.01 -0.29,-0.01 -0.24,0 -0.47,0.03 -0.71,0.06 -0.57,0.15 -1.09,0.39 -1.62,0.68 0.76,0.62 1.43,1.29 1.96,2.11 0.47,0.72 1.05,3.17 1.47,6 0.24,1.69 0.48,3.51 0.58,5.15 0.14,2.3 0.09,4.32 -0.29,5.18 -0.48,1.11 -1,2.21 -1.62,3.22 -1,1.64 -2.24,3.22 -3.34,3.65 -0.14,0.05 -0.33,0.1 -0.52,0.1 z" /><path
       id="path326"
       style="fill:#30394b;fill-opacity:1;fill-rule:evenodd;stroke:none"
       d="m 139.05,221.59 c 0.71,0 1.86,-1.34 2.95,-3.03 0.24,-0.33 0.43,-0.67 0.62,-1.05 0.48,-0.77 0.86,-1.59 1.2,-2.4 0.33,-0.82 0.38,-2.65 0.23,-4.81 -0.09,-1.2 -0.23,-2.45 -0.38,-3.7 -0.47,-3.26 -1.09,-6.29 -1.57,-7.06 l -0.05,-0.05 c -0.52,-0.81 -1.24,-1.54 -2,-2.11 -0.86,0.53 -1.58,1.2 -2.2,1.92 -0.81,1.06 -2.24,6.39 -2.86,10.62 -0.33,2.11 -0.47,3.94 -0.19,4.8 0.48,1.49 1.15,2.98 1.91,4.37 0.81,1.4 1.72,2.45 2.34,2.5 z m -0.05,0.77 c -0.19,0 -0.34,-0.05 -0.53,-0.14 -0.85,-0.39 -1.76,-1.59 -2.52,-2.94 -0.77,-1.39 -1.39,-2.83 -1.86,-4.32 -0.29,-0.96 -0.19,-2.93 0.14,-5.19 0.67,-4.37 2.15,-9.85 3,-10.95 0.62,-0.72 1.34,-1.39 2.1,-1.92 -0.47,-0.34 -1,-0.63 -1.57,-0.82 -0.29,-0.1 -0.62,-0.14 -0.96,-0.14 v -0.82 h 0.1 c 0.33,0 0.67,0.1 1.05,0.19 0.76,0.24 1.48,0.63 2.15,1.11 0.71,-0.44 1.47,-0.72 2.28,-0.92 0.28,-0.07 0.56,-0.11 0.84,-0.11 0.1,0 0.21,0.01 0.31,0.02 l -0.1,0.81 c -0.09,-0.01 -0.19,-0.01 -0.29,-0.01 -0.24,0 -0.47,0.03 -0.71,0.06 -0.57,0.15 -1.09,0.39 -1.62,0.68 0.76,0.62 1.43,1.29 1.96,2.11 0.47,0.72 1.05,3.17 1.47,6 0.24,1.69 0.48,3.51 0.58,5.15 0.14,2.3 0.09,4.32 -0.29,5.18 -0.48,1.11 -1,2.21 -1.62,3.22 -1,1.64 -2.24,3.22 -3.34,3.65 -0.14,0.05 -0.33,0.1 -0.52,0.1 z" /><path
       id="path328"
       style="fill:#337e92;fill-opacity:1;fill-rule:evenodd;stroke:none"
       d="m 139.03,222.6 -0.43,-0.05 -0.87,-0.53 -1.25,-1.4 -1.4,-2.51 -0.97,-2.36 -0.29,-0.73 -0.14,-0.77 0.05,-2.51 0.24,-1.74 0.1,-0.19 0.19,-0.05 0.67,0.1 0.2,0.09 v 0.2 l -0.2,1.59 -0.09,2.32 0.14,0.62 0.39,1.11 1.06,2.32 1.15,1.98 0.82,0.96 0.49,0.34 0.14,0.05 h 0.24 l 0.48,-0.29 0.92,-0.92 1.35,-1.88 1.2,-2.22 0.49,-1.11 0.19,-0.58 0.09,-2.31 -0.04,-1.6 v -0.19 l 0.19,-0.05 0.67,-0.1 0.2,0.1 0.09,0.15 0.1,1.78 -0.14,2.51 -0.25,0.77 -0.28,0.68 -1.16,2.22 -1.64,2.46 -1.4,1.31 -0.87,0.43 z" /><path
       id="path330"
       style="fill:#fc6d78;fill-opacity:1;fill-rule:evenodd;stroke:none"
       d="m 420.72,201.84 h 242.76 v 6.24 H 420.72 Z" /></g></svg>